<svg xmlns="http://www.w3.org/2000/svg" xmlns:xlink="http://www.w3.org/1999/xlink" viewBox="0 0 3710 3710"><defs><style>.cls-1{fill:url(#linear-gradient);}.cls-2{fill:url(#linear-gradient-2);}.cls-3{isolation:isolate;}.cls-4{clip-path:url(#clip-path);}.cls-29,.cls-30,.cls-31,.cls-41,.cls-42,.cls-43,.cls-44,.cls-45,.cls-46,.cls-5,.cls-56,.cls-58{mix-blend-mode:soft-light;}.cls-5,.cls-56{opacity:0.5;}.cls-6{fill:#fff;}.cls-7{clip-path:url(#clip-path-2);}.cls-8{fill:url(#linear-gradient-5);}.cls-9{fill:url(#linear-gradient-6);}.cls-10{fill:url(#linear-gradient-7);}.cls-11{fill:url(#linear-gradient-8);}.cls-12{fill:url(#linear-gradient-9);}.cls-13,.cls-16,.cls-26,.cls-50,.cls-52,.cls-57{mix-blend-mode:multiply;}.cls-13,.cls-16,.cls-36,.cls-38,.cls-50,.cls-52,.cls-57{opacity:0.3;}.cls-13{fill:url(#linear-gradient-10);}.cls-14{fill:url(#linear-gradient-11);}.cls-15{fill:url(#linear-gradient-12);}.cls-16{fill:url(#linear-gradient-13);}.cls-17{fill:url(#linear-gradient-14);}.cls-18{fill:url(#linear-gradient-15);}.cls-19{fill:url(#linear-gradient-16);}.cls-20{fill:url(#linear-gradient-17);}.cls-21{fill:url(#linear-gradient-18);}.cls-22{fill:url(#linear-gradient-19);}.cls-23{fill:url(#linear-gradient-20);}.cls-24{fill:url(#linear-gradient-21);}.cls-25,.cls-26{fill:url(#linear-gradient-22);}.cls-26{opacity:0.2;}.cls-27{fill:url(#linear-gradient-24);}.cls-28{fill:url(#linear-gradient-25);}.cls-29,.cls-30,.cls-31,.cls-41,.cls-42,.cls-43,.cls-44,.cls-45,.cls-46{opacity:0.8;}.cls-29{fill:url(#linear-gradient-26);}.cls-30{fill:url(#linear-gradient-27);}.cls-31{fill:url(#linear-gradient-28);}.cls-32{fill:url(#linear-gradient-29);}.cls-33{fill:url(#linear-gradient-30);}.cls-34{fill:url(#linear-gradient-31);}.cls-35{fill:url(#linear-gradient-32);}.cls-36{fill:url(#linear-gradient-33);}.cls-37{fill:url(#linear-gradient-34);}.cls-38{fill:url(#linear-gradient-35);}.cls-39{fill:url(#linear-gradient-36);}.cls-40{fill:url(#linear-gradient-37);}.cls-41{fill:url(#linear-gradient-38);}.cls-42{fill:url(#linear-gradient-39);}.cls-43{fill:url(#linear-gradient-40);}.cls-44{fill:url(#linear-gradient-41);}.cls-45{fill:url(#linear-gradient-42);}.cls-46{fill:url(#linear-gradient-43);}.cls-47,.cls-56,.cls-58{fill:#f4f7fa;}.cls-47{opacity:0.75;}.cls-48{fill:url(#linear-gradient-44);}.cls-49{fill:url(#linear-gradient-45);}.cls-50{fill:url(#linear-gradient-46);}.cls-51{fill:url(#linear-gradient-47);}.cls-52{fill:url(#linear-gradient-48);}.cls-53{fill:url(#linear-gradient-49);}.cls-54{fill:url(#linear-gradient-50);}.cls-55{fill:url(#linear-gradient-51);}.cls-57{fill:url(#linear-gradient-52);}.cls-58{opacity:0.44;}.cls-59{fill:url(#linear-gradient-53);}.cls-60{fill:url(#linear-gradient-54);}.cls-61{fill:url(#linear-gradient-55);}.cls-62{fill:url(#linear-gradient-56);}</style><linearGradient id="linear-gradient" x1="2495.26" y1="1436.11" x2="2486.23" y2="2808.18" gradientUnits="userSpaceOnUse"><stop offset="0" stop-color="#e38ddd"/><stop offset="1" stop-color="#9571f6"/></linearGradient><linearGradient id="linear-gradient-2" x1="3535.72" y1="1258.94" x2="2483.2" y2="1698.84" gradientUnits="userSpaceOnUse"><stop offset="0" stop-color="#ff9085"/><stop offset="1" stop-color="#fb6fbb"/></linearGradient><clipPath id="clip-path"><path class="cls-1" d="M2074.55,1882.8c64.94-61.09,150.62-160.28,189.27-300.42,50.7-183.8-24-276.57-16-587.66,5.09-196.7,10.63-333.93,109.7-407.43,77.65-57.61,203.44-69.19,279.85-16,63.54,44.25,100.37,138.49,111.66,205.77,9.2,54.84,1.91,94.67,33.55,123.52,32.35,29.49,67.21,12.73,97.45,34.57,61.31,44.28,26,191.22,20.3,215-63.47,264.18-306.62,442.59-413.62,519.14C2398.28,1732.57,2261.4,1816.93,2074.55,1882.8Z"/></clipPath><clipPath id="clip-path-2"><path class="cls-2" d="M1797.37,2026.52c174.76,69.62,407.33,133.37,659.09,120.15,64.24-3.38,461.13-24.22,481.29-193.4,7.1-59.6-38.54-87.27-30.44-167.12,9.6-94.61,79.83-116.32,158.5-208.18,47-54.81,184.34-215.22,113.22-361.51-42.49-87.42-157.52-165.85-262.49-181-154-22.16-256.11,96.24-425.48,299.56-150.14,180.24-152.23,238.06-262.61,366C2146.53,1796,2014.05,1919,1797.37,2026.52Z"/></clipPath><linearGradient id="linear-gradient-5" x1="2152.05" y1="3104.5" x2="2105.98" y2="2952.6" gradientTransform="matrix(-0.99, 0.12, 0.12, 0.99, 4391.23, -89.7)" gradientUnits="userSpaceOnUse"><stop offset="0" stop-color="#444b8c"/><stop offset="1" stop-color="#26264f"/></linearGradient><linearGradient id="linear-gradient-6" x1="2112.34" y1="3074.92" x2="2112.34" y2="2830.89" gradientTransform="matrix(-0.99, 0.12, 0.12, 0.99, 4391.23, -89.7)" gradientUnits="userSpaceOnUse"><stop offset="0" stop-color="#ffc444"/><stop offset="1" stop-color="#f36f56"/></linearGradient><linearGradient id="linear-gradient-7" x1="2202.19" y1="3074.92" x2="2202.19" y2="2830.88" xlink:href="#linear-gradient-6"/><linearGradient id="linear-gradient-8" x1="2219.16" y1="3084.15" x2="2173.09" y2="2932.25" xlink:href="#linear-gradient-5"/><linearGradient id="linear-gradient-9" x1="2091.24" y1="2548.34" x2="2068.82" y2="3052.6" gradientTransform="matrix(-0.99, 0.12, 0.12, 0.99, 4391.23, -89.7)" gradientUnits="userSpaceOnUse"><stop offset="0" stop-color="#311944"/><stop offset="1" stop-color="#893976"/></linearGradient><linearGradient id="linear-gradient-10" x1="2091.24" y1="2548.34" x2="2068.82" y2="3052.6" xlink:href="#linear-gradient-9"/><linearGradient id="linear-gradient-11" x1="2432.89" y1="2762.86" x2="2022.01" y2="2744.18" xlink:href="#linear-gradient-9"/><linearGradient id="linear-gradient-12" x1="1821.68" y1="2855.89" x2="1251.95" y2="3995.36" gradientTransform="matrix(-0.99, 0.12, 0.12, 0.99, 4391.23, -89.7)" xlink:href="#linear-gradient"/><linearGradient id="linear-gradient-13" x1="-745.89" y1="2634.56" x2="-246.53" y2="2634.56" gradientTransform="matrix(-1, 0, 0, 1, 2213.2, 0)" xlink:href="#linear-gradient"/><linearGradient id="linear-gradient-14" x1="1551.31" y1="2031.74" x2="1498.76" y2="2116.76" gradientTransform="matrix(-1, -0.03, -0.03, 1, 4138.61, 225.54)" xlink:href="#linear-gradient-6"/><linearGradient id="linear-gradient-15" x1="2341.57" y1="2194.51" x2="2235.63" y2="2365.89" xlink:href="#linear-gradient-5"/><linearGradient id="linear-gradient-16" x1="2363.46" y1="2215.46" x2="2271.95" y2="2387.27" gradientTransform="matrix(-0.99, 0.1, 0.1, 0.99, 4455.48, -81)" xlink:href="#linear-gradient-6"/><linearGradient id="linear-gradient-17" x1="2330.75" y1="2183.52" x2="2355.96" y2="2131.23" gradientTransform="matrix(-0.99, 0.12, 0.12, 0.99, 4391.23, -89.7)" gradientUnits="userSpaceOnUse"><stop offset="0" stop-color="#aa80f9"/><stop offset="1" stop-color="#6165d7"/></linearGradient><linearGradient id="linear-gradient-18" x1="2363.98" y1="2262.24" x2="2338.56" y2="2303.36" xlink:href="#linear-gradient-6"/><linearGradient id="linear-gradient-19" x1="1941.36" y1="2915.73" x2="1371.63" y2="4055.19" gradientTransform="matrix(-0.99, 0.12, 0.12, 0.99, 4391.23, -89.7)" xlink:href="#linear-gradient"/><linearGradient id="linear-gradient-20" x1="-1184.49" y1="2455.81" x2="-1069.64" y2="2170.53" gradientTransform="matrix(-0.99, -0.15, -0.15, 0.99, 1971.26, -9.96)" xlink:href="#linear-gradient-5"/><linearGradient id="linear-gradient-21" x1="844.04" y1="2714.48" x2="1955.81" y2="2714.48" gradientUnits="userSpaceOnUse"><stop offset="0" stop-color="#26264f"/><stop offset="1" stop-color="#444b8c"/></linearGradient><linearGradient id="linear-gradient-22" x1="117.97" y1="1986.45" x2="889.72" y2="1351.9" gradientTransform="translate(299.81 237.91) rotate(-9.73)" gradientUnits="userSpaceOnUse"><stop offset="0" stop-color="#6165d7"/><stop offset="1" stop-color="#aa80f9"/></linearGradient><linearGradient id="linear-gradient-24" x1="205.79" y1="1417.37" x2="-53.5" y2="1852.73" gradientTransform="translate(299.81 237.91) rotate(-9.73)" gradientUnits="userSpaceOnUse"><stop offset="0" stop-color="#ebeff2"/><stop offset="0.47" stop-color="#d2d9e1"/><stop offset="0.99" stop-color="#b7c0ce"/></linearGradient><linearGradient id="linear-gradient-25" x1="503.21" y1="1416.9" x2="243.58" y2="1852.84" xlink:href="#linear-gradient-24"/><linearGradient id="linear-gradient-26" x1="178.73" y1="1824.08" x2="176.35" y2="1885.45" gradientTransform="translate(299.81 237.91) rotate(-9.73)" xlink:href="#linear-gradient-5"/><linearGradient id="linear-gradient-27" x1="178.73" y1="1921.35" x2="176.34" y2="1982.72" gradientTransform="translate(299.81 237.91) rotate(-9.73)" xlink:href="#linear-gradient-5"/><linearGradient id="linear-gradient-28" x1="178.72" y1="2018.62" x2="176.34" y2="2080" gradientTransform="translate(299.81 237.91) rotate(-9.73)" xlink:href="#linear-gradient-5"/><linearGradient id="linear-gradient-29" x1="195.46" y1="1723.71" x2="189.84" y2="1868.53" xlink:href="#linear-gradient-22"/><linearGradient id="linear-gradient-30" x1="141.51" y1="1459.13" x2="-14.98" y2="1721.9" xlink:href="#linear-gradient-24"/><linearGradient id="linear-gradient-31" x1="438.95" y1="1459.14" x2="282.45" y2="1721.91" xlink:href="#linear-gradient-24"/><linearGradient id="linear-gradient-32" x1="72.41" y1="1603.75" x2="54.67" y2="2060.51" xlink:href="#linear-gradient-24"/><linearGradient id="linear-gradient-33" x1="247.33" y1="1461.91" x2="-6.57" y2="1888.24" xlink:href="#linear-gradient-24"/><linearGradient id="linear-gradient-34" x1="2162.26" y1="1603.21" x2="2144.52" y2="2059.98" gradientTransform="matrix(-0.99, 0.17, 0.17, 0.99, 2785.83, -187.81)" xlink:href="#linear-gradient-24"/><linearGradient id="linear-gradient-35" x1="2334.18" y1="1461.34" x2="2080.32" y2="1887.59" gradientTransform="matrix(-0.99, 0.17, 0.17, 0.99, 2785.83, -187.81)" xlink:href="#linear-gradient-24"/><linearGradient id="linear-gradient-36" x1="221.57" y1="1831.76" x2="197.77" y2="2444.49" xlink:href="#linear-gradient-22"/><linearGradient id="linear-gradient-37" x1="177.36" y1="1998.07" x2="229.01" y2="1732.67" gradientTransform="matrix(1, 0, 0, 1, 599.06, 175.35)" xlink:href="#linear-gradient-22"/><linearGradient id="linear-gradient-38" x1="216.94" y1="1862.29" x2="214.56" y2="1923.67" gradientTransform="translate(299.81 237.91) rotate(-9.73)" xlink:href="#linear-gradient-5"/><linearGradient id="linear-gradient-39" x1="216.94" y1="1959.57" x2="214.56" y2="2020.94" gradientTransform="translate(299.81 237.91) rotate(-9.73)" xlink:href="#linear-gradient-5"/><linearGradient id="linear-gradient-40" x1="216.94" y1="2056.84" x2="214.55" y2="2118.21" gradientTransform="translate(299.81 237.91) rotate(-9.73)" xlink:href="#linear-gradient-5"/><linearGradient id="linear-gradient-41" x1="216.11" y1="1871.14" x2="214.2" y2="1920.33" gradientTransform="translate(299.81 237.91) rotate(-9.73)" xlink:href="#linear-gradient-5"/><linearGradient id="linear-gradient-42" x1="216.11" y1="1968.38" x2="214.2" y2="2017.61" gradientTransform="translate(299.81 237.91) rotate(-9.73)" xlink:href="#linear-gradient-5"/><linearGradient id="linear-gradient-43" x1="216.11" y1="2065.63" x2="214.2" y2="2114.89" gradientTransform="translate(299.81 237.91) rotate(-9.73)" xlink:href="#linear-gradient-5"/><linearGradient id="linear-gradient-44" x1="1883.98" y1="2982.89" x2="1896.72" y2="2881.02" xlink:href="#linear-gradient-21"/><linearGradient id="linear-gradient-45" x1="1831.61" y1="2890.04" x2="1958.95" y2="2660.83" xlink:href="#linear-gradient-21"/><linearGradient id="linear-gradient-46" x1="1687.6" y1="2781.42" x2="2110.24" y2="2781.42" xlink:href="#linear-gradient-21"/><linearGradient id="linear-gradient-47" x1="1843.73" y1="2827.41" x2="1969.48" y2="2585.46" xlink:href="#linear-gradient-21"/><linearGradient id="linear-gradient-48" x1="1668.66" y1="2710.19" x2="2128.97" y2="2710.19" xlink:href="#linear-gradient-21"/><linearGradient id="linear-gradient-49" x1="1661.84" y1="2627.02" x2="2135.99" y2="2627.02" xlink:href="#linear-gradient-21"/><linearGradient id="linear-gradient-50" x1="1887.14" y1="2591.25" x2="1933.83" y2="2372.65" xlink:href="#linear-gradient-21"/><linearGradient id="linear-gradient-51" x1="1797.48" y1="1371.48" x2="2723.84" y2="2842.19" gradientUnits="userSpaceOnUse"><stop offset="0" stop-color="#fcb148"/><stop offset="0.05" stop-color="#fdba46"/><stop offset="0.14" stop-color="#ffc244"/><stop offset="0.32" stop-color="#ffc444"/><stop offset="0.48" stop-color="#fdb946"/><stop offset="0.78" stop-color="#f99c4d"/><stop offset="0.87" stop-color="#f8924f"/><stop offset="1" stop-color="#f8924f"/></linearGradient><linearGradient id="linear-gradient-52" x1="1829.98" y1="1039.96" x2="1645.34" y2="2561.7" xlink:href="#linear-gradient-51"/><linearGradient id="linear-gradient-53" x1="424.91" y1="12597.8" x2="-122.15" y2="14067.51" gradientTransform="matrix(0.28, 0.96, 0.96, -0.28, 5441.48, -7714.24)" xlink:href="#linear-gradient-22"/><linearGradient id="linear-gradient-54" x1="1559.99" y1="1963.16" x2="1012.92" y2="3432.9" gradientTransform="matrix(1, 0, 0, 1, 0, 0)" xlink:href="#linear-gradient-22"/><linearGradient id="linear-gradient-55" x1="-3443.16" y1="-3744.36" x2="-3122.94" y2="-3744.36" gradientTransform="matrix(-0.28, -0.96, -0.96, 0.28, -1813.01, -690.66)" xlink:href="#linear-gradient-22"/><linearGradient id="linear-gradient-56" x1="1139.8" y1="1838.88" x2="2768.94" y2="1838.88" gradientTransform="matrix(1, 0, 0, 1, 0, 0)" xlink:href="#linear-gradient-22"/></defs><g class="cls-3"><g id="Illustration"><path class="cls-1" d="M2074.55,1882.8c64.94-61.09,150.62-160.28,189.27-300.42,50.7-183.8-24-276.57-16-587.66,5.09-196.7,10.63-333.93,109.7-407.43,77.65-57.61,203.44-69.19,279.85-16,63.54,44.25,100.37,138.49,111.66,205.77,9.2,54.84,1.91,94.67,33.55,123.52,32.35,29.49,67.21,12.73,97.45,34.57,61.31,44.28,26,191.22,20.3,215-63.47,264.18-306.62,442.59-413.62,519.14C2398.28,1732.57,2261.4,1816.93,2074.55,1882.8Z"/><g class="cls-4"><g class="cls-5"><path class="cls-6" d="M2000.58,1932.4l-2.47-6.49c112.78-43,209.8-94.24,288.35-152.27,115.76-85.52,187.77-183.53,214-291.31,20.57-84.42,13.13-171.93,2.84-293-8.22-96.73-22.77-164.54-35.6-224.36-16.8-78.28-30.06-140.1-21-229.88,9.22-91.09,39.13-181.67,88.93-269.21l6,3.43c-49.31,86.7-78.94,176.36-88.06,266.47-9,88.7,4.19,150,20.85,227.73,12.88,60,27.48,128.06,35.73,225.21,10,117.22,17.82,209.78-3,295.31-26.65,109.4-99.55,208.74-216.65,295.25C2211.53,1837.63,2114,1889.17,2000.58,1932.4Z"/><path class="cls-6" d="M2501.21,1122l-3.6-1.57c-.65-.28-65.22-28.79-129.76-95.06-59.57-61.16-131.41-167.94-135.42-329.34l7-.17c3.95,159,74.64,264.21,133.24,324.45,55,56.53,109.92,85.19,124.2,92.09,52.75-174.86,146.52-284.61,216.15-346,76.08-67.11,140.73-92.67,141.37-92.93l2.52,6.48c-.63.25-64.36,25.49-139.55,91.88-69.36,61.25-163,171.08-215,346.44Z"/><path class="cls-6" d="M2515.24,1383.84l-1.43-2.09c-.64-.92-64.37-93.53-146.42-173.86-81.52-79.79-272.36-107.34-274.28-107.61l1-6.88a868.38,868.38,0,0,1,107.37,23.82c53.89,15.58,127.27,43.09,170.8,85.71,75.68,74.08,135.85,158.52,145.85,172.8,199.91-62.14,412.85-530.49,415-535.23l6.33,2.85c-.54,1.2-54.78,121.07-133.33,246.75-105.75,169.2-202.79,267.78-288.42,293Z"/><path class="cls-6" d="M2320,1755.75l3.45-6c51-88.83,43.42-182.06-22.51-277.09-49.38-71.17-114.67-116.54-115.32-117l3.94-5.73c.66.46,67,46.56,117.09,118.76,65.13,93.88,74.14,190,26.25,278.38,24-3.53,108.75-17.68,214.5-54.71,115.11-40.3,279.4-116.74,408.38-252l250.68-262.89,5,4.79-250.69,262.9c-130,136.3-295.39,213.25-411.28,253.81-125.53,43.93-221.69,55.82-222.64,55.94Z"/></g></g><path class="cls-2" d="M1797.37,2026.52c174.76,69.62,407.33,133.37,659.09,120.15,64.24-3.38,461.13-24.22,481.29-193.4,7.1-59.6-38.54-87.27-30.44-167.12,9.6-94.61,79.83-116.32,158.5-208.18,47-54.81,184.34-215.22,113.22-361.51-42.49-87.42-157.52-165.85-262.49-181-154-22.16-256.11,96.24-425.48,299.56-150.14,180.24-152.23,238.06-262.61,366C2146.53,1796,2014.05,1919,1797.37,2026.52Z"/><g class="cls-7"><g class="cls-5"><path class="cls-6" d="M1721.18,2026.62a1048.24,1048.24,0,0,1-141.89-9.66c-194.17-26.49-380.28-104.18-553.17-230.9l4.1-5.61c172,126,357,203.29,550,229.62,257.1,35.07,515.9-26.08,769.16-181.77,263.75-162.15,455.45-386.18,569.82-545.57,79.2-110.38,126.18-248.49,139.61-410.51l6.93.58c-13.54,163.28-60.95,302.57-140.89,414-114.75,159.91-307.1,384.69-571.83,547.43C2144.88,1962.17,1932.93,2026.62,1721.18,2026.62Z"/><path class="cls-6" d="M2662.54,1588.39l-.95-3c-.25-.8-25.48-81.23-28.68-190.24-2.95-100.71,12.81-247.19,104.66-373.12l5.61,4.1c-90.64,124.27-106.22,269-103.33,368.61,2.8,96.33,22.94,170.09,27.47,185.55,466.56-96.57,570.88-374.7,591.76-457.8a38.08,38.08,0,0,1,1.12-4l6.46,2.56c-.16.44-.42,1.53-.84,3.19-21.18,84.27-127.05,366.76-600.22,463.55Z"/><path class="cls-6" d="M2762.65,1952.62c-103.27,0-242.51-26.27-408.76-121.07l-1.61-.92-.13-1.86c-.18-2.53-16.34-256.51,119.74-540.14l137.24-286.09,6.27,3-137.25,286.08C2349,1560.83,2357.76,1803,2359,1826.44c118.42,67.27,298.26,141.1,485.69,113.35,112.54-16.66,175.25-62.81,175.87-63.28l4.17,5.56c-.63.48-64.44,47.54-178.57,64.53A566.81,566.81,0,0,1,2762.65,1952.62Z"/></g></g><path class="cls-8" d="M2655.55,3168c5.69,9.08,4.81,13.32,3.83,15.25-2.87,5.67-11.63,1.52-32.87,6.31a36.18,36.18,0,0,1-13.4.93c-5.27-.67-11.62-2.78-11.51-4.18,0-.52.94-.81,1.28-.92,5.83-1.9,42-17.27,42-17.27Z"/><path class="cls-9" d="M2656.22,3146.66l-1.1,21.73s-8.5,7.45-11.74-.18c-2.33-5.49-3.88-20.77-3.88-20.77Z"/><polygon class="cls-10" points="2548.89 3168.58 2560.48 3192.25 2573.36 3188.8 2567.94 3166.32 2548.89 3168.58"/><path class="cls-11" d="M2566,3205.38c5.55-8.18,11.29-8.09,11.89-13.38.47-4.16-2.54-8.89-6.49-10.39-5.55-2.1-11.51,2.72-12.86,3.81-9.14,7.4-5.43,17.09-14.22,22.38-1.77,1.07-4.63,2.3-7.43,5.54-1.19,1.37-4.14,4.78-3.16,6.81,1.15,2.35,7,1.65,12.5,1,6.65-.79,10-1.18,13-3.51C2563.31,3214.4,2561.69,3211.7,2566,3205.38Z"/><path class="cls-12" d="M2672.87,2627.91a709,709,0,0,1-4.39,128.64c-4.82,38.14-8.9,45-9.23,71.12-.7,56.85,18.14,63.42,26.77,126.89,9.52,70.09-4.56,127.59-10.15,149.54a404.55,404.55,0,0,1-14.57,45.7c-6,6.16-16,4.82-26.62,3.57-9.12-63.53-18.88-123.23-28-186.76q-30.48-142.55-61-285.08Z"/><path class="cls-13" d="M2634.68,3153.37c-9.12-63.53-18.88-123.23-28-186.76q-30.48-142.55-61-285.08l127.17-53.62c.19,3.31.28,6.51.42,9.76-56.73,58.15-65.21,101.2-62.23,129.84,3.61,34.73,24.06,50.4,24.52,101.15.34,36.29-10,43.54-7.28,76.09,3.48,41.9,23.42,64,34.19,87.47,10.41,22.7,16.17,55.61,3.72,104.12-1.74,5-3.41,9.57-4.91,13.46C2655.31,3156,2645.26,3154.62,2634.68,3153.37Z"/><path class="cls-14" d="M2599.71,2682.34c-27.55,56.75-41.81,100.8-49.29,127.89-4.57,16.52-8.52,33.67-8,55.68a172,172,0,0,0,13.66,62.32,331.48,331.48,0,0,1,21.87,61.64c18.79,76.28,6,142.47-5,180.84l-22.52,10.53a1284,1284,0,0,1-71.4-200c-12.32-46.18-21.8-82.42-25.73-129.12-4.15-49.25-3.6-127.75,29-224.19Z"/><path class="cls-15" d="M2546.47,2257.41c-48.55,12.54-85.31,24.45-99.91,51.63-15.42,28.71,14.39,46.88,27,106,19.28,90.54-30.5,129.08-7.72,220a238.74,238.74,0,0,0,28.67,67.42,251.51,251.51,0,0,0,79.06,36.44c51.38,13.33,75.17,1.13,142.67-.6,110.41-2.83,129.51,27.68,177.53,4,48.54-24,80.41-80.5,67.88-102.49-7.51-13.16-26.91-2.94-57.14-17.37-38.95-18.59-35.16-48.69-67.42-71.56-46.32-32.86-84.93,7.4-124.6-21.22-40.13-29-51.06-106.55-39-154.28,7.89-31.18,5.35-64.16,10.49-95.9a20.11,20.11,0,0,0-1.4-11.35c-7.63-17.36-40.62-18.08-65.55-18.4C2579,2249.21,2550.46,2256.38,2546.47,2257.41Z"/><path class="cls-16" d="M2885.12,2708c-16.06-8.88-10.2-38.3-34-51.69-22.08-12.43-36.86,7.44-68.47.55-40.54-8.85-41.62-47.08-80.52-56.09-28-6.47-34.74,11.6-74,15.61s-91.93-7.93-127.94-46.81a140.57,140.57,0,0,1-30.25-51.82c-7.68,34.76-16.35,68.47-4.13,117.25a238.74,238.74,0,0,0,28.67,67.42,251.51,251.51,0,0,0,79.06,36.44c51.38,13.33,75.17,1.13,142.67-.6,110.41-2.83,129.51,27.68,177.53,4,31-15.31,55.16-43.91,65.33-68.31C2918.28,2709.13,2896.77,2714.47,2885.12,2708Z"/><path class="cls-17" d="M2538,2172.81s-15.28,24.6-17.33,42.45,18.24,17.88,18.24,17.88l-1.51,11.24a24.52,24.52,0,0,1-17.39,20.26l-8.17,2.4s51.28,14.6,81-3.58l-8.13-1.35a24.52,24.52,0,0,1-20.51-23.33l-.17-4.86S2576.79,2178.73,2538,2172.81Z"/><path class="cls-18" d="M2458,2464.9l-79.06-136.37a4.41,4.41,0,0,0-4.83-2.09l-110.62,25.85a4.42,4.42,0,0,0-2.74,6.65l91.74,146.7a4.44,4.44,0,0,0,5.26,1.81l97.22-35.11Z"/><path class="cls-19" d="M2438.52,2449.43l-64-110.43a3.59,3.59,0,0,0-3.92-1.69L2281,2358.24a3.58,3.58,0,0,0-2.22,5.39l74.28,118.78a3.59,3.59,0,0,0,4.25,1.47l78.72-28.43Z"/><path class="cls-20" d="M2355.62,2340.27l-5.09-8.86a3.21,3.21,0,0,0-3.51-1.54l-46.08,10.36a3.24,3.24,0,0,0-2.08,4.79l5.66,9.63a3.23,3.23,0,0,0,3.56,1.51l45.5-11.14A3.23,3.23,0,0,0,2355.62,2340.27Z"/><path class="cls-6" d="M2295.27,2378.24l.21,0,81.11-19.14a1.86,1.86,0,0,0,1.39-2.24,1.89,1.89,0,0,0-2.24-1.39l-81.11,19.14a1.87,1.87,0,0,0,.64,3.67Z"/><path class="cls-6" d="M2300.36,2386.1l.23,0,80.61-19.9a1.86,1.86,0,0,0-.89-3.62l-80.61,19.89a1.87,1.87,0,0,0,.66,3.67Z"/><path class="cls-6" d="M2342.88,2394.85l.28,0,43.83-12.1a1.86,1.86,0,0,0,1.3-2.3,1.89,1.89,0,0,0-2.3-1.3l-43.82,12.1a1.86,1.86,0,0,0,.71,3.65Z"/><path class="cls-21" d="M2330,2469.74s-19.57-10.52-22.61-19-4.24-25.08-4.24-25.08l13.08,22.11s5-2,6.41-9.9,5.89-1.26,5,4.67S2330,2469.74,2330,2469.74Z"/><path class="cls-22" d="M2454.4,2299.49a136.64,136.64,0,0,0-33.63,36.71c-31.63,51.18-12.09,100.14-40.49,121.15-8.12,6-22.88,11.74-51.32,4.91L2319,2469s-6,66.64,73.54,60.8,108.76-108.56,108.76-108.56Z"/><path class="cls-23" d="M2544.44,2198.72c2.71,0,5.15-3.31,6.93-2.17s1.31,6.14-.6,9.52a12.64,12.64,0,0,1-5.22,4.91,33.09,33.09,0,0,1,4.95,13.57c1.57,13.09-6,23-9.25,28.93-14.71,26.57,2.45,71.27,23,94.64,16.69,19,25.51,12.39,35.22,27.64,18.89,29.68-11.85,58.88-3.64,97.68,12.49,59,102.79,82.32,106.54,83.24,1.48.36,2.47.59,4,.94,40.59,9.25,102.11,23.26,148.14-7.5,34.44-23,52.39-65.86,52.47-104.65,0-10.2-.49-49-29.82-82.53-4.65-5.33-32.22-36.81-72.11-39.82-21.12-1.59-25.88,5.57-41.74-.11-21.71-7.78-34-28.8-41.63-41.85-14-24-7.39-28.47-17.83-40.51-20.46-23.58-47.34-7.92-69.46-29-21.81-20.78-6.15-46-27.33-64.1-21.84-18.71-66.22-15.63-77,4.2C2520.88,2168.79,2536.15,2198.85,2544.44,2198.72Z"/><path class="cls-24" d="M1659.18,3157.82q-8.64,0-17.51-.27c-131-4-237.6-73.18-300.22-194.68q-4.11-8-7.87-16.09c-63.46,14.38-132.26,6.68-200.72-23.89C996.09,2861.81,903.19,2728.71,864.2,2538c-28.69-140.38-18.48-261.75-18-266.84l69.21,6.09c-.1,1.14-9.76,117.74,17.22,248.43,35,169.36,111.88,281.67,228.59,333.79,57.58,25.72,107.09,29,147.91,21.47-27.73-97.22-21.43-198.21,20.39-260.91,28.06-42.08,70.21-63.08,118.61-59.13,51.92,4.24,90.48,32.35,105.78,77.13,23.88,69.88-12.9,170-87.44,238.07a305.66,305.66,0,0,1-67.26,46.91q2,4,4,8.05c29.27,56.79,99.45,152.71,240.61,157.06,95,2.92,162.7-21,201.35-71,73-94.58,27.07-254.3,26.6-255.9l66.64-19.65c2.34,7.93,56.2,195.66-38.25,318C1849.78,3124.8,1768.76,3157.82,1659.18,3157.82Zm-222.45-527.93c-20.39,0-36.6,9.42-49.44,28.67-26.5,39.74-34.71,117.39-12.7,198.66a239.1,239.1,0,0,0,45-32.44c59.49-54.32,81.56-126.19,68.54-164.3-4-11.75-13.12-27.69-45.68-30.35C1440.51,2630,1438.6,2629.89,1436.73,2629.89Z"/><path class="cls-25" d="M526.64,1967.12l48.35,282a213.42,213.42,0,0,0,6.22,25.69s0-.05,0-.05.35,1.1,1,3.09a210.35,210.35,0,0,0,19.67,43.76c31.74,58,104.14,147.49,244.69,134-12.89-10.54-26.45-21.81-40.11-32.14,4.52-.48,8.92-1.84,13.47-2.61l72.14-12.37c115.52-19.81,192.36-127.78,172.56-243.29l-48.35-282Z"/><path class="cls-26" d="M526.64,1967.12l48.35,282a213.42,213.42,0,0,0,6.22,25.69s0-.05,0-.05.35,1.1,1,3.09a210.35,210.35,0,0,0,19.67,43.76c31.74,58,104.14,147.49,244.69,134-12.89-10.54-26.45-21.81-40.11-32.14,4.52-.48,8.92-1.84,13.47-2.61l72.14-12.37c115.52-19.81,192.36-127.78,172.56-243.29l-48.35-282Z"/><path class="cls-27" d="M588.71,1730.9l-.79.13-.79.14c-15.14,2.59-24,16.74-21.46,31.88l54.4,317.28c2.59,15.14,15.91,26.65,31,24.06l.79-.14.79-.13c15.14-2.6,24.76-18,22.16-33.18l-54.39-317.28A27.49,27.49,0,0,0,588.71,1730.9Z"/><path class="cls-28" d="M881.86,1680.64l-.79.14-.79.13c-15.13,2.6-26.16,17.11-23.56,32.25l54.39,317.28c2.59,15.13,18,26.29,33.15,23.69l.79-.13.79-.14c15.13-2.59,26.07-18.27,23.48-33.4l-54.39-317.28C912.33,1688.05,897,1678.05,881.86,1680.64Z"/><path class="cls-29" d="M923.73,2001.26a20.83,20.83,0,0,1-17,24.06l-232.84,39.92a20.84,20.84,0,0,1-24.06-17h0a20.84,20.84,0,0,1,17-24.07l232.84-39.91a20.83,20.83,0,0,1,24.06,17Z"/><path class="cls-30" d="M940.17,2097.13a20.85,20.85,0,0,1-17,24.07l-232.83,39.91a20.84,20.84,0,0,1-24.07-17h0a20.85,20.85,0,0,1,17-24.07l232.83-39.91a20.85,20.85,0,0,1,24.07,17Z"/><path class="cls-31" d="M956.6,2193a20.84,20.84,0,0,1-17,24.07L706.75,2257a20.85,20.85,0,0,1-24.07-17h0a20.84,20.84,0,0,1,17-24.06L932.54,2176a20.85,20.85,0,0,1,24.06,17Z"/><path class="cls-32" d="M1079.68,1897.72s-27.93-23.67-48.52-34.57l0,.35a32.26,32.26,0,0,0-22.13-3.76L524,1942.9c-17.84,3-29.93,19.31-26.87,37.15l.11.09c.37,2.13,1.3,5.53,1.68,5.53h0a4.35,4.35,0,0,0,0,.49,33.24,33.24,0,0,0,5.51,9.5,71.74,71.74,0,0,0,22.84,20.06s0,.07.05.08a33.26,33.26,0,0,0,5.18,3.06c17.6,10.67,24.5,19.23,38.47,19.53,6.54.14,100.65-25.64,206.32-54.33l260-44.56c17.3-3,29-19.54,26.86-36.78C1074.15,1899.87,1079.68,1897.72,1079.68,1897.72Z"/><path class="cls-33" d="M601.32,1731.66s58.15,21.81,62.2,51.09c-36.58,1.68-27.52,178-27.52,178l-42.93-30.36S546.74,1725.08,601.32,1731.66Z"/><path class="cls-34" d="M894.47,1681.4s58.15,21.81,62.2,51.1c-36.58,1.68-27.52,178-27.52,178l-42.92-30.37S839.89,1674.82,894.47,1681.4Z"/><path class="cls-35" d="M715.75,2103.88a27.79,27.79,0,0,1-22.7,32.09h0a27.79,27.79,0,0,1-32.09-22.7l-54.59-318.43a27.79,27.79,0,0,1,22.7-32.09h0a27.8,27.8,0,0,1,32.09,22.7Z"/><path class="cls-36" d="M664.41,1783.85l54.39,317.28c2.59,15.13-8.46,28.35-23.59,30.95l.68-.12-63.4-369.8-.68.12C647,1759.69,661.81,1768.71,664.41,1783.85Z"/><path class="cls-37" d="M955.62,1735a27.79,27.79,0,0,0-32.09-22.7h0a27.79,27.79,0,0,0-22.69,32.09l54.59,318.43a27.79,27.79,0,0,0,32.09,22.7h0a27.78,27.78,0,0,0,22.69-32.09Z"/><path class="cls-38" d="M900.66,1743.34l54.4,317.28c2.59,15.14,16.58,24.07,31.72,21.47l.15,0-63.4-369.8-.15,0C908.25,1714.89,898.07,1728.21,900.66,1743.34Z"/><path class="cls-39" d="M570.76,1998.32l48.18,281A211,211,0,0,0,863,2452.25l72.14-12.37c115.52-19.8,193.21-129,173.4-244.49l-48.17-281Z"/><rect class="cls-40" x="537.39" y="1931.91" width="559.31" height="66.01" rx="32.76" transform="translate(-320.26 166.31) rotate(-9.73)"/><path class="cls-41" d="M967.85,2032.47a20.83,20.83,0,0,1-17,24.06L718,2096.45a20.85,20.85,0,0,1-24.07-17h0a20.84,20.84,0,0,1,17-24.07l232.84-39.92a20.84,20.84,0,0,1,24.06,17Z"/><path class="cls-42" d="M984.29,2128.34a20.86,20.86,0,0,1-17,24.07l-232.84,39.91a20.84,20.84,0,0,1-24.06-17h0a20.84,20.84,0,0,1,17-24.07l232.83-39.91a20.84,20.84,0,0,1,24.07,17Z"/><path class="cls-43" d="M1000.72,2224.21a20.84,20.84,0,0,1-17,24.07l-232.83,39.91a20.84,20.84,0,0,1-24.07-17h0a20.85,20.85,0,0,1,17-24.06l232.84-39.92a20.84,20.84,0,0,1,24.06,17Z"/><path class="cls-44" d="M967.54,2038.41a21.24,21.24,0,0,1-17.67,18.29l-231.14,39.62c-11.67,2-22.67-5.31-24.67-17A21,21,0,0,1,705.68,2057a18.61,18.61,0,0,0,.08,6,21.23,21.23,0,0,0,24.72,17.25l231.13-39.63A20.56,20.56,0,0,0,967.54,2038.41Z"/><path class="cls-45" d="M984,2134.28a21.21,21.21,0,0,1-17.67,18.29l-231.13,39.62c-11.67,2-22.68-5.32-24.68-17a21,21,0,0,1,11.63-22.4,18.73,18.73,0,0,0,.07,6,21.24,21.24,0,0,0,24.72,17.26l231.14-39.62A20.63,20.63,0,0,0,984,2134.28Z"/><path class="cls-46" d="M1000.41,2230.15a21.21,21.21,0,0,1-17.67,18.29L751.6,2288.07c-11.67,2-22.68-5.35-24.68-17a21.06,21.06,0,0,1,11.63-22.41,18.86,18.86,0,0,0,.07,6A21.26,21.26,0,0,0,763.35,2272l231.14-39.63A20.33,20.33,0,0,0,1000.41,2230.15Z"/><path class="cls-47" d="M2615.92,1513.62c0-377.06-321-682.72-717-682.72s-717,305.66-717,682.72c0,228.82,118.24,431.35,299.71,555.22,77,52.55,123.68,139.17,123.68,232.38v52.25c0,113.52,92,205.54,205.54,205.54H1987c113.52,0,205.54-92,205.54-205.54v-52.25c0-93.21,46.7-179.83,123.68-232.38C2497.69,1945,2615.92,1742.44,2615.92,1513.62Z"/><path class="cls-48" d="M2058,2863.41c0,46.51-71.21,84.21-159,84.21s-159.05-37.7-159.05-84.21,71.21-84.2,159.05-84.2S2058,2816.91,2058,2863.41Z"/><path class="cls-49" d="M1687.6,2713v86a75.55,75.55,0,0,0,42.81,68.27c36.46,17.39,97.07,36.47,185.16,34.21,71.47-1.83,118.07-13.5,147.7-25.76,28.62-11.85,47-40.15,47-71.13V2757Z"/><path class="cls-50" d="M1687.6,2788.31a83.65,83.65,0,0,0,22.28,15.57c40.9,19.5,308.8,63.08,373.42,38.8a87,87,0,0,0,22.56-12.46,78.12,78.12,0,0,0,4.38-25.65V2757l-422.64-44Z"/><path class="cls-51" d="M1706.36,2654.48a40.34,40.34,0,0,0-44.52,40.12V2697a84.75,84.75,0,0,0,48,76.59c40.9,19.51,308.8,63.09,373.42,38.81,32.54-12.22,52.69-40.16,52.69-74.91v-2a40.34,40.34,0,0,0-36.16-40.12Z"/><path class="cls-52" d="M2099.83,2695.45l-393.47-41a40.26,40.26,0,0,0-37.7,17.76,84.21,84.21,0,0,0,41.22,43.22c40.9,19.51,320.21,68.77,373.42,43.7,20.71-9.76,37-26.24,45.67-46.27A40.28,40.28,0,0,0,2099.83,2695.45Z"/><path class="cls-53" d="M1691,2515.16a29.12,29.12,0,0,0-29.13,29.12v67.35a84.74,84.74,0,0,0,48,76.59c40.9,19.51,320.21,68.77,373.42,43.7,31.44-14.81,52.69-45,52.69-79.79V2544.28a29.12,29.12,0,0,0-29.12-29.12Z"/><path class="cls-54" d="M2130.13,2536.12c0,30.19-103.52,54.67-231.21,54.67s-231.22-24.48-231.22-54.67,103.52-54.66,231.22-54.66S2130.13,2505.93,2130.13,2536.12Z"/><path class="cls-55" d="M2615.92,1513.62c0-377.06-321-682.72-717-682.72s-717,305.66-717,682.72c0,228.82,118.24,431.35,299.71,555.22,77,52.55,123.68,139.17,123.68,232.38v52.25c0,113.52,92,205.54,205.54,205.54H1987c113.52,0,205.54-92,205.54-205.54v-52.25c0-93.21,46.7-179.83,123.68-232.38C2497.69,1945,2615.92,1742.44,2615.92,1513.62Z"/><ellipse class="cls-56" cx="1898.92" cy="2493.02" rx="169.18" ry="40"/><path class="cls-57" d="M1911.93,2052.12c15.36-263.14,459-324.72,457.07-559.72-1.17-144.74-177.45-252.23-215.09-273.76-277.37-158.63-618.77,24.56-689.27-105.1-17.56-32.28-9.33-67.42-4.64-87.43,7.09-30.25,23.13-58.42,46.92-84.18-195.69,121.9-325,332.4-325,571.69,0,228.82,118.24,431.35,299.71,555.22,77,52.55,123.68,139.17,123.68,232.39v52.24c0,113.52,92,205.54,205.54,205.54H1987c113.52,0,205.54-92,205.54-205.54V2311.7c-24.24,18.58-52.08,31.54-82.62,31.29C2004,2342.11,1904.29,2183.07,1911.93,2052.12Z"/><ellipse class="cls-58" cx="1910.39" cy="1540.24" rx="617" ry="595.03"/><polygon class="cls-6" points="2132.62 1078.8 1652.41 1607.48 1849.79 1606.26 1689.77 2003.95 2169.07 1472.43 1990.92 1472.92 2132.62 1078.8"/><polygon class="cls-59" points="1215.16 1390.85 1088.86 1609.7 873.29 1494.97 911.17 1636.51 1126.71 1751.14 1253.04 1532.39 1215.16 1390.85"/><path class="cls-60" d="M2661.22,1053.49l-165.92-66.8a699.17,699.17,0,0,0-174.53-161.13c-339.25-220.42-809.92-118.08-1049.23,228.09-99.4,143.72-146.54,309.81-136.64,476.22a728.42,728.42,0,0,0,12.2,97.12c5.39,27.65-13.18,55.41-41.48,62.06s-55.53-10.4-60.92-38.06q-6.78-35.19-10.61-70.44c-21.78-202.78,31.19-407.08,152.31-582.26,272.41-394.07,808.23-510.57,1194.42-259.67a805.57,805.57,0,0,1,130.65,105.77A790.41,790.41,0,0,1,2661.22,1053.49Z"/><polygon class="cls-61" points="2583.09 1596.43 2709.4 1377.58 2924.97 1492.3 2887.09 1350.77 2671.55 1236.14 2545.22 1454.89 2583.09 1596.43"/><path class="cls-62" d="M2611.9,1989c-272.46,394.07-808.29,510.51-1194.47,259.61a801.7,801.7,0,0,1-130.65-105.72,791.24,791.24,0,0,1-147-203.59l175.62,77a699.63,699.63,0,0,0,162.11,145.41c339.2,220.41,809.87,118.07,1049.18-228.1,99.4-143.71,146.54-309.8,136.64-476.27a729.19,729.19,0,0,0-12.2-97.06c-5.39-27.66,13.17-55.42,41.48-62.06s55.53,10.4,60.92,38q6.78,35.19,10.61,70.44C2785.94,1609.51,2733,1813.82,2611.9,1989Z"/></g></g></svg>