<svg xmlns="http://www.w3.org/2000/svg" viewBox="0 0 433.8 377.61">
    <defs>
        <style>
            .cls-1{fill:#e8c897;}.cls-2{fill:#a7ebf9;}.cls-3{fill:#80d6e8;}.cls-4{fill:#fff;}.cls-5{fill:#2da185;}.cls-6{fill:#51d4b3;}.cls-7{fill:#b8fdd1;}.cls-8{fill:#e8d1a7;}.cls-9{fill:#992b36;}.cls-10{fill:#cf3645;}.cls-11{fill:#fff0d4;}.cls-12{fill:#c2a77e;}.cls-13{fill:#423c39;}.cls-14{fill:#dbb4af;}.cls-15{fill:#eccfcb;}.cls-16{fill:#ba8f8a;}.cls-17{fill:#701d25;}.cls-18{fill:#ffb693;}.cls-19{fill:#d77b51;}.cls-20{fill:#ffe9b4;}.cls-21{fill:#628212;}.cls-22{fill:#82a827;}.cls-23{fill:#b2db60;}.cls-24{fill:#262221;}.cls-25{fill:#615753;}.cls-26{fill:#ffd863;}.cls-27{fill:#ffb81e;}.cls-28{fill:#ffecb5;}
        </style>
    </defs>
    <g id="Layer_2">
        <g id="OBJECTS">
            <ellipse class="cls-1" cx="216.9" cy="353.84" rx="215.55" ry="23.77"/>
            <circle class="cls-2" cx="216.9" cy="179.92" r="179.92" transform="translate(-63.69 206.07) rotate(-45)"/>
            <path class="cls-3"
                  d="M216.9,0a179.89,179.89,0,0,0-159,95.7c24.85-5.53,51.25-6.37,76.63-4.37,49.93,3.94,98.8,17.37,148.8,20.45,31.78,2,65.14-1,94.64-12.13A179.91,179.91,0,0,0,216.9,0Z"/>
            <path class="cls-4"
                  d="M31.29,86.16H156.75c-1.73-4.53-6.7-7.69-11.51-8.37s-9.72-.06-14.53-.72c-8.08-1.09-15.2-5.63-22.49-9.3s-15.7-6.56-23.49-4.13c-6.65,2.08-11.55,7.65-17.6,11.11C56.65,80.74,41.38,79.53,31.29,86.16Z"/>
            <path class="cls-4"
                  d="M185.51,173.24H80.2c-2-2-1.06-5.72,1.23-7.39s5.3-1.9,8.13-2.09,5.85-.47,8.07-2.24c3.3-2.63,3.84-7.74,7.23-10.26,2.93-2.19,7-1.73,10.54-.75s7.09,2.41,10.7,1.84c5.28-.83,9-5.63,13.79-7.92a16,16,0,0,1,19,4.62c3.24,4.28,4.3,10.26,8.61,13.45,2.82,2.1,6.48,2.55,9.89,3.39S184.09,170,185.51,173.24Z"/>
            <path class="cls-4"
                  d="M364.53,38.35H228.29c1.86-5.2,9.47-6.85,15-6.86s11.41.92,16.27-1.69c2.66-1.43,4.79-3.84,7.66-4.78,4.39-1.44,9.14.92,13.73.48,6.76-.65,11.37-6.93,17.19-10.43,9.28-5.57,22.56-3.08,29.19,5.48,2.33,3,4,6.69,7,9,4.2,3.09,9.89,2.75,15.1,2.76S361.79,33.92,364.53,38.35Z"/>
            <path class="cls-4"
                  d="M394.37,156.62H276.1c.77-4.28,7.6-7.1,11.95-7.15s9.13.62,12.64-1.93c3.06-2.22,4.28-6.35,7.36-8.55,5.41-3.86,13.43.07,19.42-2.81,5-2.39,6.85-8.58,11.23-11.92,4-3.08,9.9-3.24,14.41-.89A18.33,18.33,0,0,1,362,135.19c.84,3.33,1.1,7.21,3.8,9.31,2.87,2.23,6.95,1.28,10.58,1.29C383.14,145.8,391.34,150.56,394.37,156.62Z"/>
            <path class="cls-5"
                  d="M234.47,198.91a15.15,15.15,0,0,1-.83-6.31,6.53,6.53,0,0,1,3.38-5.13c2.54-1.19,5.64-.09,8.3-1,3.55-1.21,5-5.56,4.77-9.3s-1.75-7.31-2.05-11,1.08-8.09,4.6-9.41c2.4-.9,5.13-.12,7.64-.69,4.68-1.05,7.07-6.15,8.65-10.68a240.06,240.06,0,0,0,7.52-26.45c.71-3.22,1.41-6.54,3.28-9.25s5.28-4.67,8.45-3.79,4.91,3.93,5.9,6.94c3.94,12.06-1.41,24.9-3.77,37.37-.56,2.92-.81,6.33,1.26,8.47,3.15,3.26,8.89,1,13,3s5.17,7.62,3.67,11.92-4.8,7.68-7.6,11.28c-2.37,3.05-4.37,7.6-1.8,10.49,1.63,1.82,4.43,2.06,6.33,3.6a7.31,7.31,0,0,1,2.37,6.17,16.22,16.22,0,0,1-2.16,6.46c-5.43,10.21-15.32,18.19-26.69,20.3C257.94,235.67,240.13,217.47,234.47,198.91Z"/>
            <path class="cls-6"
                  d="M291.36,205.73a.58.58,0,0,0-.8,0c-5.07,5.35-18.47,12.57-22.68,14.77,1.9-8.41,3.82-18,5.64-27.69,2.21-2,16.06-14.44,20.05-17.65a.57.57,0,0,0,.08-.8.56.56,0,0,0-.79-.08c-3.58,2.87-15,13.1-19,16.7,5.87-31.66,10.66-64.45,10.73-64.95a.56.56,0,0,0-.48-.64.57.57,0,0,0-.64.48c-.07.49-4.82,33-10.64,64.44-2.78-10.19-9.77-25-9.85-25.12a.56.56,0,0,0-.75-.27.55.55,0,0,0-.27.75c.08.17,8.12,17.14,10.32,27.12a.47.47,0,0,0,.06.15c-1.78,9.5-3.65,18.82-5.51,27.06-3.41-7.58-17.88-22.9-18.54-23.6a.58.58,0,0,0-.8,0,.56.56,0,0,0,0,.8c.17.18,17.1,18.11,18.83,24.63a.8.8,0,0,0,.08.16c-1,4.28-2,8.23-2.93,11.72a.58.58,0,0,0,.4.7h0a.57.57,0,0,0,.67-.41c1-3.57,2-7.64,3-12,2.85-1.46,18.13-9.43,23.83-15.44A.58.58,0,0,0,291.36,205.73Z"/>
            <path class="cls-5"
                  d="M54.28,240.68c-5.06-7.4-6.48-18-1.05-25.13,1.75-2.3,4.14-4.19,5.15-6.9,1.68-4.49-1-9.38-4-13.18S48,187.69,48,182.89c0-6.33,5.91-10.92,8.45-16.72,4.29-9.82-1.61-21.16-.24-31.79a13.65,13.65,0,0,1,3-7.42,7.51,7.51,0,0,1,7.33-2.47c3.25.91,5.12,4.35,5.87,7.64,1.17,5.1.56,10.44,1.27,15.62S77,158.46,82,160.12c2.63.88,5.54.54,8.18,1.38,3.8,1.2,6.53,4.77,7.53,8.63s.5,8-.51,11.81c-.77,2.9-1.84,5.79-1.76,8.79s1.66,6.23,4.53,7.1c2.61.79,5.47-.53,8.12.11,4.19,1,5.72,6.1,6.23,10.38a100.65,100.65,0,0,1,0,23.21c-.73,6.4-2.23,13-6.45,17.91C92.69,266.94,65.43,257,54.28,240.68Z"/>
            <path class="cls-6"
                  d="M99.47,217.19a167.31,167.31,0,0,0-11.54,25.66q-3.15-10.6-6-21.3-3.24-12.11-6.07-24.31A186.23,186.23,0,0,1,86.17,174.1c.42-.79-.78-1.49-1.2-.7a188.41,188.41,0,0,0-9.69,21.38c-1.16-5-2.29-10.08-3.35-15.15q-2.49-11.87-4.62-23.8c-.16-.88-1.5-.5-1.34.37q3.56,20,8.16,39.8a112,112,0,0,1-16.21-14c-.62-.65-1.61.33-1,1A114,114,0,0,0,74.4,197.9l.1,0,.08.07.09.4q4.93,21,11,41.67c.38,1.29.78,2.57,1.16,3.86A93.07,93.07,0,0,1,62.2,228c-.67-.6-1.66.38-1,1a94.25,94.25,0,0,0,25.91,16.57.54.54,0,0,0,.21,0c1.77,5.89,3.59,11.76,5.5,17.6.27.85,1.62.49,1.34-.37C92.24,257,90.4,251,88.61,245.09a166,166,0,0,1,12.07-27.2A.7.7,0,0,0,99.47,217.19Z"/>
            <path class="cls-6"
                  d="M48.61,335.48c-6.25-3.7-10.56-11.76-7.59-18.39.95-2.13,2.57-4,3.24-6.2,1.42-4.74-1.86-9.73-5.93-12.53s-9-4.23-13.14-6.87-7.82-7.24-7-12.11c.92-5.33,6.81-9,7.08-14.38.48-9.59-16.08-12.92-16-22.52,0-3.8,2.87-7,3.76-10.69,1.4-5.75-2-11.49-5.57-16.24S0,205.74,0,199.82A12.87,12.87,0,0,1,8.07,188.2a12.87,12.87,0,0,1,13.77,3.27c5.17,5.67,5.27,16,12.43,18.75,5.2,2,11.43-1.41,16.54.86,3.79,1.68,5.67,6,6.28,10.12s.3,8.34,1.34,12.35,4,8,8.09,8.42c3.3.34,6.39-1.64,9.68-2,6.78-.68,12.38,5.86,13.85,12.52s.12,13.56.18,20.37c.06,5.3,1.88,11.65,7,13,1.9.49,3.93.16,5.87.47,4.93.79,8.31,5.46,10.07,10.14a35.11,35.11,0,0,1-6.56,35.1C99.06,340,87.3,344,76.12,342.86,67.76,342,55.72,339.7,48.61,335.48Z"/>
            <path class="cls-7"
                  d="M105.57,341.35q-6.45-7.78-12.68-15.76a.72.72,0,0,0,.13-.38,64.19,64.19,0,0,1,6.56-27.27c.4-.81-.81-1.51-1.2-.71A65.76,65.76,0,0,0,91.68,324Q79.1,307.92,67.41,291.11l-3-4.44a.84.84,0,0,0,.06-.14,155.19,155.19,0,0,1,11.75-35.7c.38-.81-.82-1.52-1.2-.71a156.75,156.75,0,0,0-11.67,35q-11.52-16.9-22.09-34.43a.66.66,0,0,0,.06-.26,117.82,117.82,0,0,1,4.52-28.16.7.7,0,0,0-1.35-.37A119.9,119.9,0,0,0,40,248.64c-2.12-3.55-4.23-7.11-6.3-10.69q-8.82-15.28-16.92-31c-.41-.8-1.61-.09-1.2.7q10.86,21.06,23,41.39a97.07,97.07,0,0,0-20.09-6c-.88-.16-1.25,1.18-.37,1.34A95.89,95.89,0,0,1,39.6,251a.65.65,0,0,0,.19,0q3.51,5.84,7.13,11.61,7.35,11.7,15.14,23.13l-32-4.53c-.88-.12-1.26,1.22-.37,1.35l33.41,4.72q9.45,13.81,19.5,27.19c2.55,3.4,5.14,6.76,7.75,10.11l-38.94-1.68c-.9,0-.9,1.36,0,1.4L91.34,326l.13,0q6.45,8.25,13.12,16.32C105.16,343,106.14,342,105.57,341.35Z"/>
            <path class="cls-6"
                  d="M379.51,240.68c5.06-7.4,6.49-18,1.06-25.13-1.75-2.3-4.14-4.19-5.15-6.9-1.69-4.49,1-9.38,4-13.18s6.41-7.78,6.41-12.58c0-6.33-5.91-10.92-8.44-16.72-4.3-9.82,1.61-21.16.23-31.79a13.64,13.64,0,0,0-3-7.42,7.51,7.51,0,0,0-7.33-2.47c-3.25.91-5.12,4.35-5.88,7.64-1.17,5.1-.55,10.44-1.26,15.62s-3.32,10.71-8.28,12.37c-2.63.88-5.54.54-8.19,1.38-3.8,1.2-6.52,4.77-7.52,8.63a23.46,23.46,0,0,0,.51,11.81c.77,2.9,1.83,5.79,1.76,8.79s-1.67,6.23-4.54,7.1c-2.6.79-5.47-.53-8.11.11-4.19,1-5.72,6.1-6.23,10.38a100.1,100.1,0,0,0-.05,23.21c.73,6.4,2.22,13,6.45,17.91C341.11,266.94,368.37,257,379.51,240.68Z"/>
            <path class="cls-7"
                  d="M334.32,217.19a167.36,167.36,0,0,1,11.55,25.66q3.15-10.6,6-21.3,3.24-12.11,6.07-24.31a184.82,184.82,0,0,0-10.33-23.14c-.42-.79.79-1.49,1.21-.7a190.19,190.19,0,0,1,9.69,21.38c1.16-5,2.29-10.08,3.35-15.15q2.49-11.87,4.62-23.8c.16-.88,1.5-.5,1.34.37q-3.57,20-8.16,39.8a112.53,112.53,0,0,0,16.21-14c.62-.65,1.61.33,1,1A114.45,114.45,0,0,1,359.4,197.9l-.1,0a.71.71,0,0,1-.09.07l-.09.4q-4.92,21-11,41.67c-.38,1.29-.78,2.57-1.16,3.86A93.24,93.24,0,0,0,371.6,228c.67-.6,1.65.38,1,1a94.25,94.25,0,0,1-25.91,16.57.54.54,0,0,1-.22,0c-1.77,5.89-3.58,11.76-5.49,17.6-.27.85-1.62.49-1.34-.37q2.88-8.85,5.55-17.78a165.09,165.09,0,0,0-12.06-27.2C332.68,217.11,333.89,216.41,334.32,217.19Z"/>
            <path class="cls-5"
                  d="M385.19,335.48c6.25-3.7,10.55-11.76,7.59-18.39-.95-2.13-2.57-4-3.24-6.2-1.43-4.74,1.86-9.73,5.93-12.53s9-4.23,13.14-6.87,7.81-7.24,7-12.11c-.93-5.33-6.81-9-7.08-14.38-.48-9.59,16.07-12.92,16-22.52,0-3.8-2.86-7-3.76-10.69-1.4-5.75,2-11.49,5.58-16.24s7.55-9.81,7.5-15.73A12.57,12.57,0,0,0,412,191.47c-5.17,5.67-5.26,16-12.42,18.75-5.21,2-11.44-1.41-16.54.86-3.79,1.68-5.68,6-6.29,10.12s-.29,8.34-1.33,12.35-4,8-8.09,8.42c-3.3.34-6.39-1.64-9.68-2-6.78-.68-12.39,5.86-13.85,12.52s-.12,13.56-.19,20.37c-.05,5.3-1.87,11.65-7,13-1.91.49-3.93.16-5.87.47-4.93.79-8.31,5.46-10.08,10.14a35.15,35.15,0,0,0,6.56,35.1c7.56,8.43,19.32,12.41,30.49,11.28C366,342,378.08,339.7,385.19,335.48Z"/>
            <path class="cls-6"
                  d="M328.22,341.35q6.45-7.78,12.69-15.76a.64.64,0,0,1-.13-.38,64.48,64.48,0,0,0-6.56-27.27c-.4-.81.8-1.51,1.2-.71a66.08,66.08,0,0,1,6.7,26.81q12.57-16.12,24.26-32.93c1-1.48,2-3,3.05-4.44a.84.84,0,0,1-.06-.14,154.74,154.74,0,0,0-11.76-35.7c-.38-.81.83-1.52,1.21-.71a157.26,157.26,0,0,1,11.67,35q11.5-16.9,22.09-34.43a.66.66,0,0,1-.07-.26A117.31,117.31,0,0,0,388,222.28a.7.7,0,0,1,1.34-.37,118.77,118.77,0,0,1,4.47,26.73c2.13-3.55,4.24-7.11,6.3-10.69q8.83-15.28,16.93-31c.41-.8,1.61-.09,1.2.7q-10.87,21.06-23,41.39a96.89,96.89,0,0,1,20.09-6c.87-.16,1.25,1.18.37,1.34A95.89,95.89,0,0,0,394.2,251a.72.72,0,0,1-.19,0q-3.52,5.84-7.13,11.61-7.36,11.7-15.14,23.13l32-4.53c.88-.12,1.26,1.22.37,1.35l-33.41,4.72q-9.45,13.81-19.5,27.19c-2.56,3.4-5.15,6.76-7.76,10.11l38.95-1.68c.9,0,.89,1.36,0,1.4L342.46,326l-.13,0q-6.45,8.25-13.12,16.32C328.64,343,327.65,342,328.22,341.35Z"/>
            <path class="cls-8"
                  d="M119.82,298q-2.53-93.55-7-187a106.15,106.15,0,0,0-16,0q-4.45,93.49-7,187C99.51,299.8,110.07,298.84,119.82,298Z"/>
            <path class="cls-9"
                  d="M115.05,160.44c-5.84-.09-11.67-.14-17.51-.21-.68,0-1.73-.14-2.85-.23q-.25,6.23-.5,12.44a172.67,172.67,0,0,0,21.34,0C115.37,168.42,115.22,164.43,115.05,160.44Zm-.32-7.49c-.17-4-.37-8-.54-12-5.55-.08-11.1-.13-16.65-.19-.5,0-1.21-.08-2-.16-.18,4.15-.38,8.29-.56,12.43A171.07,171.07,0,0,0,114.73,153Z"/>
            <path class="cls-10"
                  d="M97.27,143.35c-.08,2.33-.15,4.66-.23,7,0,1.07,1.63,1.07,1.67,0q.11-3.5.23-7A.84.84,0,0,0,97.27,143.35Z"/>
            <path class="cls-10"
                  d="M97.37,162.19a.85.85,0,0,0-.84.83q-.18,3.45-.38,6.88a.85.85,0,0,0,.84.83.84.84,0,0,0,.83-.83c.13-2.29.25-4.58.38-6.88A.84.84,0,0,0,97.37,162.19Z"/>
            <path class="cls-11"
                  d="M96.6,179.11q-.87,28.06-1.73,56.15l-.48,15.81c0,1.07,1.63,1.07,1.67,0q.85-28.08,1.72-56.16l.48-15.8C98.3,178,96.63,178,96.6,179.11Z"/>
            <path class="cls-11"
                  d="M100.77,115.39c0-1.07-1.71-1.07-1.67,0a102.81,102.81,0,0,1-.92,18c-.15,1.05,1.45,1.5,1.6.44A104.9,104.9,0,0,0,100.77,115.39Z"/>
            <path class="cls-12"
                  d="M202.05,351.1c.38-16.78,1.44-45.3.95-54.69-.08-1.43.24-3-.68-4a4.39,4.39,0,0,0-3.5-1.52c-45.06-1-90.6-.51-135.92-2.89-3.89-.21-8.72,3.17-8.69,7.05.14,16.54-.27,31.28-.15,50,0,2.35-.22,4.82,1.24,6.66a8.23,8.23,0,0,0,6.2,2.72c43.49,2.09,91.66,2.45,135.87,2.09C200,356.47,202,353.74,202.05,351.1Z"/>
            <path class="cls-13"
                  d="M202.32,292.37a4.39,4.39,0,0,0-3.5-1.52c-10.84-.25-21.7-.41-32.57-.54-2.26,1.38-4,3.67-4,6.17.13,17.54-.28,33.19-.16,53.06,0,2.49-.22,5.11,1.24,7.06h0c11.5,0,22.89,0,34-.12,2.65,0,4.62-2.75,4.68-5.39.38-16.78,1.44-45.3.95-54.69C202.92,295,203.24,293.46,202.32,292.37Z"/>
            <path class="cls-13"
                  d="M79.4,330.68a2.64,2.64,0,0,0,1.45-.16c.44-.23.82-.77.53-1.17.19-9.57.39-18.94.25-28.51a1.77,1.77,0,0,0-.2-1c-.18-.28-.62-.51-.89-.3-4.07,0-8.26,0-12.4,0-.5,0-1,.82-1,1.32q.31,14.4,0,28.82c0,.46.43.85.84,1.07a2.66,2.66,0,0,0,1.35.09C72.64,330.73,76.12,330.71,79.4,330.68Z"/>
            <path class="cls-13"
                  d="M102.58,330.68a2.67,2.67,0,0,0,1.46-.16c.43-.23.81-.77.53-1.17.18-9.57.38-18.94.25-28.51a2,2,0,0,0-.2-1c-.19-.28-.62-.51-.89-.3-4.07,0-8.27,0-12.4,0-.51,0-1,.82-1,1.32q.31,14.4,0,28.82a1.36,1.36,0,0,0,.83,1.07,2.69,2.69,0,0,0,1.36.09C95.82,330.73,99.31,330.71,102.58,330.68Z"/>
            <path class="cls-13"
                  d="M125.77,330.68a2.63,2.63,0,0,0,1.45-.16c.44-.23.82-.77.54-1.17.18-9.57.38-18.94.25-28.51a1.87,1.87,0,0,0-.21-1c-.18-.28-.62-.51-.88-.3-4.08,0-8.27,0-12.41,0-.5,0-1,.82-1,1.32q.31,14.4,0,28.82c0,.46.43.85.84,1.07a2.66,2.66,0,0,0,1.35.09C119,330.73,122.49,330.71,125.77,330.68Z"/>
            <path class="cls-13"
                  d="M149,330.68a2.64,2.64,0,0,0,1.45-.16c.44-.23.82-.77.53-1.17.18-9.57.38-18.94.25-28.51a1.77,1.77,0,0,0-.2-1c-.18-.28-.62-.51-.89-.3-4.07,0-8.27,0-12.4,0-.5,0-1,.82-1,1.32q.31,14.4,0,28.82c0,.46.43.85.84,1.07a2.66,2.66,0,0,0,1.35.09C142.19,330.73,145.68,330.71,149,330.68Z"/>
            <path class="cls-9"
                  d="M188.46,97.64a36.42,36.42,0,0,0,.11-6,2.06,2.06,0,0,1,1.64-.86c6.6-.07,12.94-.33,19.29-.45.93,0,2.09,1,1.83,1.91a7.48,7.48,0,0,0,.11,3.39c.2,1.08.16,2.39-.74,3a3.25,3.25,0,0,1-1.53.45C202.49,99.88,195.06,98.93,188.46,97.64Z"/>
            <path class="cls-14"
                  d="M131.83,151c2.65-11.54,6.87-23,14.3-32.19,10.38-12.86,26.42-20.41,42.8-22.54,16.92-2.2,34.8,1.2,48.85,10.89s23.79,25.92,24.16,43c-13.12,2.25-26.89,2.72-40.2,3.08l-39.85,1.06A298.53,298.53,0,0,1,131.83,151Z"/>
            <path class="cls-15"
                  d="M264.89,288.58q-1-67.08-.58-134.17c-44-.89-88.7-1.56-132.65,0q-.43,67.09.58,134.17C176.22,289.65,220.93,290.41,264.89,288.58Z"/>
            <path class="cls-9"
                  d="M130.11,157.66c-1.81,0-3.53-2.77-3.32-4.56a3.55,3.55,0,0,1,3.86-3,15.26,15.26,0,0,0,2.14,0c42.82-1.12,85.87-3.16,128.7-2.26,2.63,0,5.62,1.7,5.7,4.33a4.58,4.58,0,0,1-5.26,4.41c-.56.1-1.34.21-1.9.3C217,157.46,173.76,158.44,130.11,157.66Z"/>
            <path class="cls-4"
                  d="M178.05,102.86a53.92,53.92,0,0,0-31.54,26.63,51.75,51.75,0,0,0-4.2,11.11.7.7,0,0,0,1.36.33,52.46,52.46,0,0,1,24.24-32.09,50.3,50.3,0,0,1,10.54-4.65A.69.69,0,0,0,178.05,102.86Z"/>
            <path class="cls-4"
                  d="M165.22,118a40.34,40.34,0,0,0-8.4,8.36.72.72,0,0,0,0,1,.71.71,0,0,0,1,0A38.68,38.68,0,0,1,166,119.2C166.67,118.67,166,117.48,165.22,118Z"/>
            <path class="cls-16"
                  d="M230.57,110.12a43,43,0,0,0-8.87-4.69c-.84-.33-1.16,1-.34,1.35a43.68,43.68,0,0,1,24,23.52,42.22,42.22,0,0,1,2.73,9.34c.15.88,1.48.47,1.33-.41A45.09,45.09,0,0,0,230.57,110.12Z"/>
            <path class="cls-13"
                  d="M255.66,164.81a.7.7,0,0,0-1.39,0q1,26.49,1,53,0,7.44-.09,14.9c0,.9,1.38.86,1.39,0q.31-26.52-.42-53Q256,172.26,255.66,164.81Z"/>
            <path class="cls-13"
                  d="M248.47,165a.7.7,0,0,0-1.39,0q1,26.5,1,53,0,7.45-.1,14.91c0,.9,1.39.86,1.4,0q.3-26.52-.42-53Q248.76,172.45,248.47,165Z"/>
            <path class="cls-13"
                  d="M241.29,165.19a.7.7,0,0,0-1.4,0q1,26.5,1,53c0,5,0,9.94-.09,14.91,0,.89,1.38.86,1.39,0q.3-26.52-.42-53Q241.57,172.64,241.29,165.19Z"/>
            <path class="cls-10" d="M167.75,150.91l-36.47,1a.7.7,0,0,0,0,1.4l36.48-1A.7.7,0,0,0,167.75,150.91Z"/>
            <path class="cls-17"
                  d="M260.47,150.87q-10.11.66-20.24.51c-.9,0-.86,1.38,0,1.4q10.14.14,20.25-.51C261.4,152.21,261.37,150.82,260.47,150.87Z"/>
            <path class="cls-18"
                  d="M334.28,224.89c.42-39.51,1.13-80.14.54-118.93-.09-5.67.49-11.37-.3-17s-2.7-11.2-6.33-15.56a21.8,21.8,0,0,0-15-7.53c-24.93-1.52-50.24-2-75.14-4-10.18-.8-20.93,0-29.69,5.23s-15.09,16.29-12.4,26.14c3-.21,6,0,9-.22-2.79-7.84,3-16.62,10.6-20.08s16.25-3,24.55-2.46l59,3.82c6.57.43,13.84.53,17.92,5.7s5.5,11.91,6.35,18.43c1.59,12.1-.82,95.89-.54,126.1C326.07,224.92,331,224.53,334.28,224.89Z"/>
            <path class="cls-19"
                  d="M330.38,214.34c-2.51-3.92-3.06-18.6-3-27.41.24-34.27,1.67-59.67.48-89.15-.28-6.82-1.27-15-6-19.89-5.33-5.57-12.22-6.39-19.89-7.19-16.37-1.71-37.2-1.64-53.58-3.35-10.52-1.1-21.52-2.14-31.37,1.73-8.4,3.31-17.38,12.79-16.23,22.59a11.91,11.91,0,0,0,.3,1.49c1.29,0,2.57,0,3.86-.11-2.79-7.84,3-16.62,10.6-20.08s16.25-3,24.55-2.46l59,3.82c6.57.43,13.84.53,17.92,5.7s5.5,11.91,6.35,18.43c1.59,12.1-.82,95.89-.54,126.1,3.24.36,8.21,0,11.45.33,0-2.26.05-4.54.07-6.81C333.06,216.82,331.36,215.86,330.38,214.34Z"/>
            <path class="cls-20"
                  d="M246.64,64.08c-8.81-1-17.89-1.69-26.6.42a33.25,33.25,0,0,0-18,10.84,23.76,23.76,0,0,0-5,10.37c-.17.87,1.17,1.25,1.35.37,1.31-6.71,5.87-12.22,11.54-15.84,6.64-4.24,14.52-5.67,22.3-5.74a112.35,112.35,0,0,1,14.43,1C247.53,65.58,247.52,64.19,246.64,64.08Z"/>
            <path class="cls-20"
                  d="M301.5,66.7l-43.37-1.83c-.9,0-.89,1.36,0,1.39l43.37,1.83C302.4,68.13,302.4,66.73,301.5,66.7Z"/>
            <path class="cls-20"
                  d="M331.47,109.53q-.18,30.6-.34,61.21,0,8.7-.1,17.39a.7.7,0,0,0,1.4,0l.33-61.21q.06-8.7.1-17.39A.7.7,0,0,0,331.47,109.53Z"/>
            <path class="cls-21"
                  d="M387.49,337.14c-43.7,2.86-88.25,2.88-131.84-1.45A331.12,331.12,0,0,1,260,286,107.79,107.79,0,0,1,269,256.31a77.35,77.35,0,0,1,8-13c9.37-12.32,23.3-21.64,38.69-23.33C333,218,350.47,226,362.47,238.63a77.84,77.84,0,0,1,13.21,19.08,106.89,106.89,0,0,1,9.06,27.38C388.06,302.18,388,319.73,387.49,337.14Z"/>
            <path class="cls-22"
                  d="M396.32,350.66a32.45,32.45,0,0,0-1.87-7.15,12,12,0,0,0-4.6-5.67c-2.11-1.29-4.22-.71-6.69-.68-40.83.51-78.38,3-122.47-1.36a20.91,20.91,0,0,1-4.1-1c-3.47,2.73-7.48,8.32-7.41,12.73C291.36,354.5,348.64,354.5,396.32,350.66Z"/>
            <path class="cls-23"
                  d="M375.68,257.71q-13.55.24-27.08.24-28.05,0-56.1-1-6.86-.25-13.72-.55c-2.81-.13-6.54.22-9.77-.11a77.35,77.35,0,0,1,8-13c9.37-12.32,23.3-21.64,38.69-23.33C333,218,350.47,226,362.47,238.63A77.84,77.84,0,0,1,375.68,257.71Z"/>
            <path class="cls-23"
                  d="M341.22,296.66l-2-3.51-9,5.2,1.31,2.28h0a22.82,22.82,0,0,0,9.48-2.05s0,0,0,0c-3.39,3.12-9,2.87-9,2.87h-6.85v-.92a0,0,0,0,0,0,0l-5.36,5.95s0,0,0,0l5.36,5.95s0,0,0,0v-.82h7.41a3.47,3.47,0,0,0,3-1.74l5.62-9.74A3.49,3.49,0,0,0,341.22,296.66Z"/>
            <path class="cls-23"
                  d="M322.2,286.2h0a23,23,0,0,0-6.34-7.39s0,0,0,0c4.36,1.49,6.81,6.52,6.83,6.56h0l4.33,7.5s0,0,0,0l-.63.36s0,0,0,0l8,1.73s0,0,0,0l2.31-7.68s0,0,0,0l-.66.38h0l-4.68-8.11a3.49,3.49,0,0,0-3-1.74H317.07a3.49,3.49,0,0,0-3,1.74l-2,3.54,9,5.19Z"/>
            <path class="cls-23"
                  d="M314.36,301.49a22.86,22.86,0,0,0-3.12,9.2,0,0,0,1,1,0,0c-.94-4.52,2.17-9.21,2.17-9.21h0l4.47-7.74h0l.58.34,0,0-2.4-7.67-7.92,1.71s0,0,0,0l.7.4v0l-4.69,8.11a3.49,3.49,0,0,0,0,3.48l5.62,9.74a3.47,3.47,0,0,0,3,1.74H319V301.48h-4.61Z"/>
            <path class="cls-24"
                  d="M380,317.26a.7.7,0,0,0-.85-.49.72.72,0,0,0-.49.86,58.57,58.57,0,0,1,.47,11.23c-.05.89,1.34.89,1.39,0A60,60,0,0,0,380,317.26Z"/>
            <path class="cls-24"
                  d="M375.93,318c-.09-.88-1.49-.89-1.39,0a49.23,49.23,0,0,1,0,10.51c-.09.89,1.31.88,1.4,0A49.23,49.23,0,0,0,375.93,318Z"/>
            <path class="cls-24"
                  d="M371.74,318.7a.71.71,0,0,0-.69-.69.69.69,0,0,0-.7.69,70.27,70.27,0,0,1,.35,9.62c0,.9,1.36.9,1.39,0A68.72,68.72,0,0,0,371.74,318.7Z"/>
            <path class="cls-23"
                  d="M366.19,342q-31,1.14-62.1.33-8.67-.24-17.34-.62c-.89,0-.91,1.35,0,1.39q31,1.38,62.09.78,8.69-.17,17.35-.49C367.07,343.37,367.09,342,366.19,342Z"/>
            <path class="cls-23"
                  d="M385.79,341.53a114.91,114.91,0,0,1-12.59.47.7.7,0,0,0,0,1.39,114.9,114.9,0,0,0,12.59-.46C386.68,342.84,386.69,341.45,385.79,341.53Z"/>
            <path class="cls-4"
                  d="M365.26,249.93a68,68,0,0,0-21.75-20.34,65.87,65.87,0,0,0-7.74-3.89c-.82-.35-1.53.85-.71,1.2a66.8,66.8,0,0,1,23.77,17,63.57,63.57,0,0,1,5.22,6.69C364.55,251.37,365.76,250.67,365.26,249.93Z"/>
            <path class="cls-24"
                  d="M109.84,357a10.76,10.76,0,0,0-8,8.69,2.27,2.27,0,0,0,1.17.91c4.88,2,10.65,1,15.83,0,.82-.17.75-1.4.69-2.24-.07-1.12-.16-2.24-.27-3.35a3.09,3.09,0,0,0-.44-1.59,3,3,0,0,0-1.76-.93C114.8,357.83,112.12,356.41,109.84,357Z"/>
            <path class="cls-24"
                  d="M184.8,353.79a6.52,6.52,0,0,0-3.58,3.53,19.45,19.45,0,0,0-1.32,5,.75.75,0,0,0,.64.76c5.46.92,11.27-.61,16.31-2.89a1.39,1.39,0,0,0,.81-1.35c-.34-1.88.1-3.94,0-5.85a2.37,2.37,0,0,0-.38-1.39c-.54-.67-1.57-.59-2.41-.42A77.44,77.44,0,0,0,184.8,353.79Z"/>
            <path class="cls-15"
                  d="M183,354.8a33,33,0,0,1,8.9-10.75,132.9,132.9,0,0,0,5-44c-.08-1.7,0-3.76,1.48-4.6a4.26,4.26,0,0,1,2.48-.32,42,42,0,0,1,6,.89,2.94,2.94,0,0,1,1.74.83,3.11,3.11,0,0,1,.44,2.19c-.15,3.17-.31,6.35-.46,9.53A49,49,0,0,1,203.85,327c-2.71,5.81-5.8,11.58-6.76,17.92-.33,2.2.29,4.34-.28,6.49a91.29,91.29,0,0,1-12,4.32C184.15,355.89,183.4,355.33,183,354.8Z"/>
            <path class="cls-14"
                  d="M182.25,302.41a11.07,11.07,0,0,0,6,7.42,2.3,2.3,0,0,0,.55,3,2.23,2.23,0,0,0,2.93-.47,10.39,10.39,0,0,0,2.63.68,3.32,3.32,0,0,0,.94,3,2.56,2.56,0,0,0,4.24-1.82,7.57,7.57,0,0,0,3.54.36,2.19,2.19,0,0,0,1.12,2.28,2.46,2.46,0,0,0,3.59-2.8,13.42,13.42,0,0,0,3.94-.63,4.35,4.35,0,0,0,2.77-2.59,5.81,5.81,0,0,0-.16-3.22,21.36,21.36,0,0,0-4.13-8.24,15.09,15.09,0,0,0-7.65-5,16.61,16.61,0,0,0-11.07,1.33A34.67,34.67,0,0,0,182.25,302.41Z"/>
            <path class="cls-24"
                  d="M90.93,351.21a11.18,11.18,0,0,0-6,8.25c.55,1.32,2.4,1.28,3.79,1.45a31.81,31.81,0,0,0,13.82-1.67,3.58,3.58,0,0,0,.52-2.19l0-4.85a1.58,1.58,0,0,0-.26-1.07,1.45,1.45,0,0,0-1.11-.33C98.21,350.75,94.08,349.65,90.93,351.21Z"/>
            <path class="cls-15"
                  d="M89.31,303.12q5.41,11,10.22,22.33c2.48,5.83-1.81,12.49-3.45,18.61-.92,3.47-4.62,5.56-6.9,8.34.31.24.62.76,1.23.7a75,75,0,0,0,11.21-.27,2,2,0,0,0,1.68-1.57c1.42-7.2,3.15-14.43,4.52-21.62,1.17-6.1,2.28-12.69-.35-18.32C104.61,305.22,95.88,301.61,89.31,303.12Z"/>
            <path class="cls-4"
                  d="M59.8,250.1c7.35,14.21,5.31,32.36,14.57,45.4,5.56,7.85,14.74,12.76,24.26,14.1s19.33-.67,28.08-4.65c11.73,5.14,24.68,6.18,37.39,4.62a97.46,97.46,0,0,0,36.1-12.46c8.09-4.62,15.71-10.29,21.5-17.59s9.64-16.36,9.62-25.68-3.64-19.73-11.86-24.12-29.25,5-45.45,5.14c-14.86.1-31.45-5.57-46.2-7.35-10.65-1.29-21.55-.13-32.07-2.22-5.2-1-10.55-2.86-15.67-1.49-5.29,1.41-9.14,6-11.92,10.67S63.39,246,59.8,250.1Z"/>
            <path class="cls-13"
                  d="M80.07,223.8c-5.29,1.41-9.14,6-11.92,10.67C66.67,237,65.42,240.05,64,243c0,.13,0,.26.07.39.39,1.94,1,4.3,2.61,5.63s3.83,1.7,5.45,3.06c2.63,2.22,3.23,5.87,4.51,8.89,1,2.48,2.87,4.95,5.52,5.44,3.2.6,6.17-1.94,7.86-4.72s2.69-6,4.89-8.42c4.63-5.07,13.06-4.92,17.9-9.8a15,15,0,0,0,3.79-7.73,10.89,10.89,0,0,0-.78-7.47,8,8,0,0,0-1.12-1.51c-6.38-.14-12.76-.24-19-1.48C90.54,224.25,85.19,222.43,80.07,223.8Z"/>
            <path class="cls-24"
                  d="M212.91,358.53a10,10,0,0,0-4.94,9.64,50.42,50.42,0,0,0,18-2.39c1.11-.37,1.09-2,1-3.14a21.51,21.51,0,0,0-.84-4.21,3.89,3.89,0,0,0-1.35-2.21,4.14,4.14,0,0,0-3-.22C218.83,356.54,215.44,357.11,212.91,358.53Z"/>
            <path class="cls-25"
                  d="M240.84,307c-2.93,2.17-3.54,6.44-2.59,10s3.14,6.56,5,9.71,3.39,6.73,2.87,10.34c-.07.51.73.74,1.22.59l.21-.51a38.14,38.14,0,0,0,3-16.87C250.07,314.56,246,309.31,240.84,307Z"/>
            <path class="cls-4"
                  d="M228.5,238.08c5.85-.75,11.66,2.9,14.69,7.95s3.68,11.22,3.19,17.1-2,11.6-3.07,17.4a102.56,102.56,0,0,0-1.11,27.77c-.78.18-1.27.2-2,.38-3.52-8.11-2.63-17.74-1.21-26.47s3.52-17.51,2.59-26.31c-.39-3.66-1.74-7.8-5.18-9.12-1.1-.43-2.32-.52-3.4-1C230.46,244.64,229.31,240.7,228.5,238.08Z"/>
            <path class="cls-4"
                  d="M219.22,231.33a1.27,1.27,0,0,1,1.85-.81c10.32,5.41,15.94,14.73,17.19,25.3,1.54,13.06-3.69,26.69-11.09,37.55-2.52,3.69-1.08,9.05-.83,13.51.23,4.15,3.8,7.71,4.26,11.85,1.41,12.48-5.08,24.55-5.34,37.1a1.28,1.28,0,0,1-.55,1,23,23,0,0,1-11.32,3.78,1.26,1.26,0,0,1-1.16-1.82,70.57,70.57,0,0,1,6.13-10.71,1.36,1.36,0,0,0,.24-.68,177,177,0,0,0-.64-23.81c-.68-7.92-7.11-13.89-12.76-19.48s-11.57-11.52-13.63-19.2c-1.74-6.48-.44-13.52,2.49-19.56,3.46-7.16,9.05-13.1,14.7-18.6a55.47,55.47,0,0,0,6.21-7.14A23.52,23.52,0,0,0,219.22,231.33Z"/>
            <path class="cls-4"
                  d="M119.29,359.58c2.35-3.46,6-7.33,5.29-11.46A140.44,140.44,0,0,1,127,289.48c1.33-5.14,2.92-10.75.7-15.58a12.46,12.46,0,0,0-8.93-6.69,17.13,17.13,0,0,0-11.2,1.94c-6.93,3.73-11.31,11.28-12.4,19.08S96,304,99.22,311.16a81.74,81.74,0,0,0,12.35,20.09c1.24,1.42,1.38,12.35,1.25,18.59,0,.81-2.84,5-4.34,7.54-.2.34.14.86.45,1.11A3.11,3.11,0,0,0,110,359a29.08,29.08,0,0,0,5.82,1.34C117.14,360.53,118.54,360.7,119.29,359.58Z"/>
            <path class="cls-13"
                  d="M53.82,224.15a22,22,0,0,1-12.74-12.6c-.15-.38.53-1,.92-1.08,4.06-1.17,8.3,1.82,11.66,4.38a11.57,11.57,0,0,1,2.92,3,4.91,4.91,0,0,1,.65,4C56.8,223.14,55.12,224.63,53.82,224.15Z"/>
            <path class="cls-25"
                  d="M52.55,221.37A15.12,15.12,0,0,1,44.31,214a2.11,2.11,0,0,1,1.92-.22,21,21,0,0,1,6.18,3.63,4.1,4.1,0,0,1,1.45,1.93A1.86,1.86,0,0,1,52.55,221.37Z"/>
            <path class="cls-24"
                  d="M51.72,223.46a1,1,0,0,0-.81,0,3.26,3.26,0,0,0-.81,1.39,1.13,1.13,0,0,1,0,.15c.06.75.53,1.56,1.39,1.42a1.15,1.15,0,0,0,.17-.06,4.4,4.4,0,0,0,.72-.57,1.66,1.66,0,0,0,.13-.27,1.84,1.84,0,0,0-.12-1.4A1.35,1.35,0,0,0,51.72,223.46Z"/>
            <path class="cls-25"
                  d="M54,211.74c-4-2.65-6.27-7.54-6.85-12.33.11-.21.53-.55.73-.41a6.53,6.53,0,0,1,1.5,2A20.24,20.24,0,0,0,52,204.67a10.32,10.32,0,0,0,3.21,2.26A3.3,3.3,0,0,1,57,208.14a1.8,1.8,0,0,1-.32,1.91A8.82,8.82,0,0,1,54,211.74Z"/>
            <path class="cls-4"
                  d="M48.66,235.14c3.79-8.08,1.82-17.85,5-26.17,1.55-4,6.52-5.83,10.74-6.65a18.4,18.4,0,0,1,12.48,2c4.22,2.38,5.59,8.12,6.66,12.84a82.17,82.17,0,0,1,1.51,14.44c.24,5.31-3.74,9.56-7.08,13.7s-8.07,7.41-13.36,8-10.52,1.36-15.75.41c-.86-.15-1.21-1.32-1.22-2.19,0-1.63-1.41-2.84-2.27-4.23a7.08,7.08,0,0,1-1.4-4.58C44.39,239.8,47.41,237.8,48.66,235.14Z"/>
            <path class="cls-13"
                  d="M78,245.32c3.34-4.14,7.32-8.39,7.08-13.7a82.17,82.17,0,0,0-1.51-14.44c-1-4.64-2.4-10.24-6.44-12.7a8.61,8.61,0,0,0-4.51,2.3,18.46,18.46,0,0,0-3.82,5.84A53.56,53.56,0,0,0,65,224.2c-.9,4.41-1.14,9.37,1.43,13.07,1.73,2.48,4.59,4.18,5.74,7a27.06,27.06,0,0,1,1,5.16c0,.14.06.28.09.42A25.16,25.16,0,0,0,78,245.32Z"/>
            <path class="cls-13"
                  d="M80.76,218.79A18.17,18.17,0,0,1,97,207.6a1.44,1.44,0,0,1,.62,1.41c-1.16,3.45-1.48,7.22-3.72,10.08a17.52,17.52,0,0,1-8.9,6,4.3,4.3,0,0,1-3.62-.18,3.26,3.26,0,0,1-1.19-3A10.09,10.09,0,0,1,80.76,218.79Z"/>
            <path class="cls-25"
                  d="M82.43,220.3a18.9,18.9,0,0,1,10.24-8.15A2.42,2.42,0,0,1,93,214.4a10.44,10.44,0,0,1-7,7.37,4.1,4.1,0,0,1-2,.18A2.58,2.58,0,0,1,82.43,220.3Z"/>
            <path class="cls-4"
                  d="M72,223.29a1.85,1.85,0,0,1,1.13-.35,1.05,1.05,0,0,1,.94.64,1.45,1.45,0,0,1-.14,1.09,4.56,4.56,0,0,1-1.77,2,1.33,1.33,0,0,1-1,.25c-.76-.17-.62-1.28-.47-1.82A3.12,3.12,0,0,1,72,223.29Z"/>
            <path class="cls-24"
                  d="M72.3,223.68a1.08,1.08,0,0,0-.81,0,3.32,3.32,0,0,0-.81,1.39,1.24,1.24,0,0,1,0,.16c.06.75.53,1.55,1.39,1.41l.17,0a4.46,4.46,0,0,0,.72-.58,1.34,1.34,0,0,0,.13-.27,1.82,1.82,0,0,0-.12-1.39A1.37,1.37,0,0,0,72.3,223.68Z"/>
            <path class="cls-4" d="M72,224.38a.29.29,0,0,1-.29.29.29.29,0,1,1,0-.58A.29.29,0,0,1,72,224.38Z"/>
            <path class="cls-4" d="M72.23,225.1a.11.11,0,1,1-.11-.11A.11.11,0,0,1,72.23,225.1Z"/>
            <path class="cls-24"
                  d="M54,246.61a.34.34,0,0,1-.17-.42,3.36,3.36,0,0,1,2-1.87,1.41,1.41,0,0,1,1,0,1.11,1.11,0,0,1,.53,1.44,1.84,1.84,0,0,1-1.31,1A3.74,3.74,0,0,1,54,246.61Z"/>
            <path class="cls-24"
                  d="M49.25,246.73l.11-.2a3.33,3.33,0,0,0-2.9-1.89,1.11,1.11,0,0,0-1,.41.85.85,0,0,0,0,.83,1.87,1.87,0,0,0,.62.6A4.26,4.26,0,0,0,49.25,246.73Z"/>
            <path class="cls-4"
                  d="M83.19,236c-3.74,8-10.41,15.36-19.66,16.34-.88.1-.89,1.49,0,1.4,9.75-1.05,16.89-8.55,20.86-17C84.77,235.89,83.57,235.18,83.19,236Z"/>
            <path class="cls-25"
                  d="M74.18,207.79a15.3,15.3,0,0,0,11.75-9.37.45.45,0,0,1,.66.32c.13,4.59-2.79,9.16-6.7,11.57a4.73,4.73,0,0,1-3.34.87A3.41,3.41,0,0,1,74.18,207.79Z"/>
            <path class="cls-13"
                  d="M110.82,298.83c.72-1.16,1.72-2.45,3.09-2.38a2.55,2.55,0,0,1,2,1.31,6.57,6.57,0,0,1,.77,2.35,28.67,28.67,0,0,1,.38,6.61c-.21,3.56-3,9.25-7.32,6C105.18,309.23,108.52,302.51,110.82,298.83Z"/>
            <path class="cls-13"
                  d="M204.15,260.51c2.37-2.67,4-6.39,3-9.8-.83-2.66-3.1-4.57-4.53-7a12.15,12.15,0,0,1-1.12-9.85c.43-1.32,1.09-2.66,1.42-4-9,1.84-19.71,4.89-28.87,5-7.26,0-14.94-1.28-22.61-2.86a19.33,19.33,0,0,0-3.85,3c-2.67,2.87-4.28,7.06-3,10.78,1.33,4,5.39,6.32,9.18,8.14s7.94,3.8,9.8,7.57c1.09,2.22,1.52,5.16,3.79,6.13s4.89-.91,7.35-1.71c4.07-1.31,8.39.55,12.64,1A19.93,19.93,0,0,0,204.15,260.51Z"/>
            <path class="cls-13"
                  d="M113.22,266a20,20,0,0,1,36.31,8.16c.53,3.43-.27,7.61-3.42,9.07a7.36,7.36,0,0,1-5.64-.13,52,52,0,0,1-5.14-2.65,24.73,24.73,0,0,0-10.18-2.65c-3-.12-5.87.67-8.82.63C109.48,278.31,110.39,270.19,113.22,266Z"/>
            <path class="cls-13"
                  d="M146.62,294A31.22,31.22,0,0,1,157.83,290a13.1,13.1,0,0,1,4-.23,5.11,5.11,0,0,1,3.47,1.9c1.28,1.78.8,4.39-.61,6.06a11.19,11.19,0,0,1-5.62,3.19c-3.62,1.06-9.23,2.22-13,1.06C141.69,300.66,143.7,295.82,146.62,294Z"/>
            <path class="cls-13"
                  d="M171.76,276.4a7.82,7.82,0,0,1,7.15-1.11,5.5,5.5,0,0,1,3.48,6c-1,4.42-7.07,5.35-10.71,4C167.31,283.73,168.58,278.63,171.76,276.4Z"/>
            <path class="cls-15"
                  d="M98.77,307.78a37.42,37.42,0,0,1-3.16-17c0-.89-1.36-.89-1.4,0a39,39,0,0,0,3.36,17.7C97.93,309.3,99.13,308.6,98.77,307.78Z"/>
            <path class="cls-15"
                  d="M127.39,285.68q-2.39,9.39-4.1,18.93c-.16.88,1.18,1.26,1.34.37q1.73-9.53,4.1-18.93A.7.7,0,0,0,127.39,285.68Z"/>
            <path class="cls-15"
                  d="M198.81,296.28a27.11,27.11,0,0,1-7-18.61.7.7,0,0,0-1.39,0,28.57,28.57,0,0,0,7.37,19.6C198.42,297.94,199.41,297,198.81,296.28Z"/>
            <path class="cls-6"
                  d="M299.14,359c0-50.8.07-104.48.11-155.29-40.74-12.24-85.27-12.85-125.82,0q-.06,76.22-.1,152.42c5.39,5.11,12,7.29,19.29,8.8C228.09,372.29,265,371.2,299.14,359Z"/>
            <path class="cls-7"
                  d="M302,209.43a3.08,3.08,0,0,0,1-3.59,5.74,5.74,0,0,0-3-2.89c-19.24-8.63-40.41-10.54-62-10.37s-45.3,1-64.47,7.18a10.47,10.47,0,0,0-2.35,1.33,2.63,2.63,0,0,0-1.11,2.83,3.08,3.08,0,0,0,2.48,2.05c1.63.25,3.93-.59,5.53-.94,37.95-8.31,78.2-7.76,115.44,2.74C294.51,208.05,300.91,210.27,302,209.43Z"/>
            <path class="cls-7"
                  d="M171.17,354a3.3,3.3,0,0,0-1,3.73,5.86,5.86,0,0,0,3,3c19.24,9,40.4,11,62,10.8s45.29-1.1,64.47-7.48a10.59,10.59,0,0,0,2.34-1.38,2.79,2.79,0,0,0,1.11-3,3.09,3.09,0,0,0-2.48-2.13c-1.62-.27-3.93.61-5.53,1-37.94,8.65-78.2,8.08-115.44-2.85C178.7,355.47,172.31,353.17,171.17,354Z"/>
            <path class="cls-5"
                  d="M293.67,252.51a275.06,275.06,0,0,0-88.52-4.33q-12.37,1.4-24.58,3.92c-.88.18-.51,1.52.37,1.34a273.61,273.61,0,0,1,87.85-3.67q12.34,1.47,24.51,4.09C294.18,254,294.55,252.7,293.67,252.51Z"/>
            <path class="cls-7"
                  d="M293.67,253.59a275.06,275.06,0,0,0-88.52-4.33q-12.37,1.4-24.58,3.92c-.88.18-.51,1.52.37,1.34a273.61,273.61,0,0,1,87.85-3.67q12.34,1.47,24.51,4.09C294.18,255.12,294.55,253.78,293.67,253.59Z"/>
            <path class="cls-5"
                  d="M291.67,319.14q-21.59,1.68-43.26,1.91t-43.29-1q-12.24-.72-24.43-1.9c-.89-.08-.89,1.31,0,1.39q21.56,2.1,43.22,2.72t43.3-.24q12.24-.5,24.46-1.45C292.56,320.46,292.56,319.07,291.67,319.14Z"/>
            <path class="cls-7"
                  d="M291.67,320.46q-21.59,1.68-43.26,1.91t-43.29-1q-12.24-.72-24.43-1.9c-.89-.09-.89,1.31,0,1.39q21.56,2.1,43.22,2.72t43.3-.25q12.24-.48,24.46-1.44C292.56,321.78,292.56,320.38,291.67,320.46Z"/>
            <path class="cls-26"
                  d="M240.06,304.25c-4.69,1.56-10.15,1.32-14.24-1.46s-6.33-8.38-4.5-13c.75-1.9,2.11-3.51,3-5.36s1.23-4.2,0-5.84c-.6-.16-1.22-1-.26-1.5,1.65-.42,3.22,1.12,3.68,2.76s.2,3.38.35,5.07.94,3.55,2.56,4.06a3.5,3.5,0,0,0,4-2,6.54,6.54,0,0,0,.1-4.73c-.47-1.55-1.25-3-1.82-4.49a16.26,16.26,0,0,1-.53-10.22,13.89,13.89,0,0,1,6.15-8.1c.7-.41,1.87.61,1.89,1.43a4.47,4.47,0,0,1-.95,2.22,7.15,7.15,0,0,0-.57,6.05c.82,2.26,2.71,3.93,4,5.94a13.18,13.18,0,0,1,1.41,11.44,3.56,3.56,0,0,0,3.87-2.78,10.63,10.63,0,0,0-.53-5.25,1.47,1.47,0,0,1,2.22-.49,4.25,4.25,0,0,1,1.41,2.33,22.68,22.68,0,0,1,.34,13.94C250.11,298.79,244.55,302.77,240.06,304.25Z"/>
            <path class="cls-4"
                  d="M173.68,295.57q-.18-27.29-.15-54.57,0-15.28.09-30.58a.7.7,0,0,0-1.4,0q-.12,27.29-.07,54.57t.32,54.56q.15,15.3.35,30.58a.7.7,0,0,0,1.39,0Q173.85,322.86,173.68,295.57Z"/>
            <path class="cls-4"
                  d="M243,191.91a204.9,204.9,0,0,0-60,4.6c-4.78,1.09-9.68,2.31-13.54,5.5-.7.57.29,1.55,1,1,3.39-2.8,7.75-3.93,12-4.91,4.8-1.12,9.65-2.07,14.52-2.84a203.51,203.51,0,0,1,29.47-2.45q8.33-.07,16.64.52C243.93,193.37,243.92,192,243,191.91Z"/>
            <path class="cls-4"
                  d="M279.63,195.41A214,214,0,0,0,249,192c-.9,0-.89,1.36,0,1.39a211.71,211.71,0,0,1,30.24,3.4C280.14,196.91,280.52,195.57,279.63,195.41Z"/>
            <path class="cls-27"
                  d="M233.81,301.81a9.36,9.36,0,0,1-7.82-7.08c-.21-.87-1.55-.5-1.35.37a10.8,10.8,0,0,0,9.17,8.11.7.7,0,0,0,.69-.7A.72.72,0,0,0,233.81,301.81Z"/>
            <path class="cls-27"
                  d="M248.4,289.57a13.23,13.23,0,0,1-5.48,8.45c-.73.5,0,1.71.71,1.2a14.56,14.56,0,0,0,6.11-9.28C249.9,289.06,248.56,288.69,248.4,289.57Z"/>
            <path class="cls-28"
                  d="M240.75,280.54c-1.37-3.65-4.76-6.7-4.63-10.82,0-.9-1.37-.89-1.39,0-.12,3.84,2.48,6.73,4.12,10a11.7,11.7,0,0,1,0,10.61c-.4.8.8,1.51,1.21.71A13.15,13.15,0,0,0,240.75,280.54Z"/>
        </g>
    </g>
</svg>