<svg xmlns="http://www.w3.org/2000/svg" viewBox="0 0 358.94 358.66">
    <defs>
        <style>
            .cls-1{fill:#51626b;}.cls-2{fill:#43525b;}.cls-3{fill:#788b92;}.cls-4{fill:#798b92;}.cls-5{fill:#b4ddea;}.cls-6{fill:#4196cc;}.cls-7{fill:#fefefe;}.cls-8{fill:#e1b03f;}.cls-9{fill:#fae285;}
        </style>
    </defs>
    <g id="Layer_2">
        <g id="Layer_1-2">
            <path id="external_full_ring"
                  class="cls-1"
                  d="M170.69,338.87c-18.67-2.26-36.23-8.2-53-16.41a181.08,181.08,0,0,1-38.79-26.1,177,177,0,0,1-31.07-35.42C37.47,245.58,29.49,229,24.87,211.08c-2.8-10.86-4.24-22.07-6.3-33.12-1.86-19.17-.25-38.11,3.77-56.88,5.79,1.71,5.79,1.71,7.53-2.83,2.26-5.91,2.26-5.91-3.8-9.14,4.65-18.14,13.54-34.74,24-50.17,6.58,5.07,9.42,13.93,16.77,4.67,2.21-2.1,2.38-3.26.07-5.44C63.54,55,60.64,51.35,57.54,47.9a160.45,160.45,0,0,1,47-31.62c1.43,2.81,3,5.56,4.26,8.43,4.08,9.1,1.61,8.07,11.36,4.44,5.91-1.48-3.06-13.73-3.54-18C134.82,4.32,154,0,173.54.54c.78,4.26-2.27,15.57,2.32,17.17,3.17-.62,8.27,2.37,9.2-1.52,1.22-5.08-.08-10.77-.29-16.19A166.35,166.35,0,0,1,242.3,11.18c-1.63,4.25-3,8.64-5,12.69-2.45,4.41,1.23,5.36,4.53,6.48,5.17,2.14,5,2.1,7.28-3.26,1.54-3.69,3.49-7.22,5.26-10.83A165.16,165.16,0,0,1,302.28,48.5c-2.08,1.94-4.21,3.82-6.23,5.82-6.93,6.89-6.92,6.9.36,13.49,4,2.41,10.52-8.7,14-11.16a165.51,165.51,0,0,1,32.23,47.9c-2.8,1.43-5.56,3-8.42,4.26-9,4.11-8.28,1.33-4.31,11.69,1.57,5.33,13.76-3.39,17.82-3.87a168.1,168.1,0,0,1,11.17,56.26l-.63.63-8.55-.05c-9.08,0-9,0-8.71,9.15.07,2.4,1,2.91,3.13,2.85,4.89-.12,9.79-.06,14.68-.08l.09.09c-.27,18.47-4,36.3-10,53.7-.36,1-.8,2.07-1.21,3.1-4.47-1.74-9-3.35-13.4-5.27-3.27-1.75-4.35.76-5.23,3.46-2.45,6.42-2.41,6.34,3.77,9,3.33,1.45,6.51,3.24,9.76,4.87a160.42,160.42,0,0,1-31.61,47c-2.14-1.78-4.41-3.43-6.39-5.37-6.93-6.81-6.84-6.8-13.51.29-3.61,2.94,7.16,9.52,8.86,12.57-10.29,5.76-20.39,11.9-30.93,17.16-6.05,3-12.81,4.59-19.25,6.82-3.34-6.28-3.34-6.28-10.22-3.45-2.4.85-4.25,2.11-2.61,4.76a14.26,14.26,0,0,1,.85,2.43c-13.92,3.6-39.37,5.46-52.7,4.25M94.35,87.44C65.27,112.59,51,152.22,54.33,190.3A122.42,122.42,0,0,0,68,237.61c13.59,25.57,33.57,44.5,60.06,56.48a123.78,123.78,0,0,0,66.62,10.18,121.47,121.47,0,0,0,52.24-18.73c9.1-5.87,17.75-12.37,24.56-21,44.4-45.31,44.85-123.88.95-169.65-30.69-32.83-68.75-46.06-113.18-39.46A116,116,0,0,0,94.35,87.44Z"/>
            <g id="external_partial_ring">
                <path class="cls-2"
                      d="M18.57,177.92c2.05,11.06,3.5,22.28,6.3,33.16,4.62,17.92,12.6,34.5,22.92,49.86a177,177,0,0,0,31.07,35.42,181.08,181.08,0,0,0,38.79,26.1c16.81,8.21,34.37,14.15,53,16.41l3.92.48-1.17,4.89h0c.15,4.68-.25,9.73-.24,14.41h0c-17.23-.85-40.39-5.07-56.53-11,1.27-3.47,2.49-7,3.83-10.43,2.42-6.25,2.45-6.24-3.57-8.77-5-2.09-4.89-2.05-7,2.81-1.63,3.83-3.55,7.53-5.34,11.29A172.58,172.58,0,0,1,57.5,311.13c5.19-8.6,16.91-11.54,5.06-20.06-3.27-3.11-5.78,3.87-8.56,5.25-2,1.78-4.14,3.4-6.21,5.09A171.72,171.72,0,0,1,16.32,254.3c2.95-1.48,5.84-3.11,8.86-4.42,7.28-3.15,7.21-3.06,4.36-10.35-1.16-2.94-2.44-3.76-5.55-2.27-4.1,2-8.5,3.36-12.78,5A169.53,169.53,0,0,1,.53,193l.09-7.62,9.61,0c7.41,0,7.42,0,7.69-7.47Z"/>
                <path class="cls-2"
                      d="M18.57,178h-.65c1.77-8.06-12.57-3.17-17.3-4.46l-.1-7.63a169.15,169.15,0,0,1,10.69-49.21l11.13,4.42C18.32,139.85,16.71,158.79,18.57,178Z"/>
                <path class="cls-2"
                      d="M188.45,341.07a200.85,200.85,0,0,0,49.39-4.49q2.22,5.55,4.43,11.12a168.9,168.9,0,0,1-49.93,10.71c-2.3,0-7.2.17-7.2.17,0-5.73,0-12,0-17.75C186.15,340.83,187.44,341.07,188.45,341.07Z"/>
                <path class="cls-2"
                      d="M249.82,332.84c6.44-2.23,13.2-3.81,19.25-6.82,10.54-5.26,20.64-11.4,30.93-17.16l1.43,2.27a171.94,171.94,0,0,1-47.11,31.47Z"/>
                <path class="cls-2"
                      d="M50.06,58.94c-10.45,15.43-19.34,32-24,50.17l-9.75-4.49A171.36,171.36,0,0,1,47.78,57.5Z"/>
            </g>
            <g id="insets">
                <path class="cls-3"
                      d="M50.06,58.94,47.78,57.5l9.76-9.6c3.1,3.45,6,7.11,9.36,10.27,2.31,2.18,2.14,3.34-.06,5.44C59.49,72.87,56.63,64,50.06,58.94Z"/>
                <path class="cls-3"
                      d="M47.79,301.41c2.07-1.69,4.22-3.31,6.21-5.09,2.78-1.38,5.29-8.36,8.56-5.25,11.85,8.52.12,11.47-5.06,20.06Z"/>
                <path class="cls-3"
                      d="M301.43,311.13,300,308.86c-1.7-3.05-12.47-9.62-8.86-12.57,6.67-7.09,6.58-7.1,13.51-.29,2,1.94,4.25,3.59,6.39,5.37Z"/>
                <path class="cls-3"
                      d="M116.64,11.18c.49,4.17,9.44,16.64,3.54,18-9.75,3.63-7.28,4.66-11.36-4.44-1.29-2.87-2.83-5.62-4.26-8.43Z"/>
                <path class="cls-3"
                      d="M347.76,116.63c-4.07.48-16.23,9.2-17.82,3.87-4-10.36-4.73-7.58,4.31-11.69,2.86-1.3,5.62-2.83,8.42-4.26Q345.22,110.6,347.76,116.63Z"/>
                <path class="cls-3"
                      d="M11.21,242.26c4.28-1.64,8.68-3,12.78-5,3.11-1.49,4.39-.67,5.55,2.27,2.85,7.29,2.92,7.2-4.36,10.35-3,1.31-5.91,2.94-8.86,4.42Q13.77,248.27,11.21,242.26Z"/>
                <path class="cls-3"
                      d="M342.65,254.35c-3.25-1.63-6.43-3.42-9.76-4.87-6.18-2.67-6.22-2.59-3.77-9,.88-2.7,2-5.21,5.23-3.46,4.39,1.92,8.93,3.53,13.4,5.27Z"/>
                <path class="cls-3"
                      d="M249.78,332.83c1.51,3.25,3,6.52,4.54,9.77l-12,5.1c-1.47-3.71-3-7.43-4.46-11.13a14.84,14.84,0,0,0-.85-2.43c-1.65-2.65.21-3.91,2.61-4.76C246.45,326.55,246.45,326.55,249.78,332.83Z"/>
                <path class="cls-3"
                      d="M254.39,16.26c-1.77,3.61-3.72,7.14-5.26,10.83-2.24,5.36-2.11,5.4-7.28,3.26-3.3-1.12-7-2.07-4.53-6.48,2-4.05,3.35-8.44,5-12.69Z"/>
                <path class="cls-3"
                      d="M104.63,342.58c1.79-3.76,3.71-7.46,5.34-11.29,2.07-4.86,2-4.9,7-2.81,6,2.53,6,2.52,3.57,8.77-1.34,3.46-2.56,7-3.83,10.43Z"/>
                <path class="cls-4"
                      d="M16.32,104.62l9.75,4.49c6.06,3.23,6.06,3.23,3.8,9.14-1.74,4.54-1.74,4.54-7.53,2.83l-11.13-4.42Q13.76,110.63,16.32,104.62Z"/>
                <path class="cls-3"
                      d="M310.44,56.65c-3.51,2.46-10,13.57-14,11.16-7.28-6.59-7.29-6.6-.36-13.49,2-2,4.15-3.88,6.23-5.82Z"/>
                <path class="cls-4"
                      d="M184.77,0c.21,5.42,1.51,11.11.29,16.19-.93,3.89-6,.9-9.2,1.51-4.59-1.58-1.54-12.89-2.32-17.16Z"/>
                <path class="cls-4"
                      d="M185.11,340.83l0,17.83H173.2c0-4.89.09-9.79-.06-14.67-.54-5.17,1.83-5.52,6-5.44A8.31,8.31,0,0,1,185.11,340.83Z"/>
                <path class="cls-4"
                      d="M358.3,185.39c-4.71,0-9.42,0-14.13.08-2.11.06-3.06-.45-3.13-2.85-.29-9.15-.37-9.15,8.71-9.15l8.55.05.63,4.4V181Z"/>
                <path class="cls-4"
                      d="M.62,173.5c4.73,1.29,19.07-3.61,17.3,4.46-.27,7.48-.27,7.49-7.69,7.48l-9.61,0C.41,183.94.21,182.47,0,181v-3.07C.21,176.44.41,175,.62,173.5Z"/>
            </g>
            <path id="internal_circle"
                  class="cls-5"
                  d="M94.35,87.44a116,116,0,0,1,64.91-32c44.43-6.6,82.49,6.63,113.18,39.46,43.9,45.78,43.44,124.34-.95,169.66-2.62,1.88-5.21,3.81-7.87,5.62C235.17,289.61,204,296.91,169.94,291c-33.35-5.81-60.12-22.62-80-49.88C63,205,58.17,154.31,78.15,113.76,82.85,104.63,88.9,96.19,94.35,87.44ZM124,220.64C113.4,207,93.25,223,105.23,235.81c6,5.93,14.09,4.36,19.7-3.82l32.87-3.34,6.76,4.61q3.36,13.52,6.73,27c-8.47,8-1.39,22.73,10,20.84a12.34,12.34,0,0,0,9.93-9.47c1.28-5.8-1.51-10.4-8.71-14.36q-3.37-13.48-6.74-27c12.64-14.61-10.43-30.63-19.55-13.49-5.89.57-11.8,1.05-17.68,1.74C133.68,219.12,128.85,219.93,124,220.64Zm19.54-99.49h.68q2.29,5.09,4.6,10.19c7.82,17.22,15.6,34.47,23.55,51.63a4.89,4.89,0,0,0,3.57,2.37c12.22.17,24.44.07,36.66.14,2.12,0,2.81-.72,2.81-2.82q-.07-42.07,0-84.16c0-2.42-1-2.91-3.13-2.88-5.86.1-11.72.16-17.58,0-2.69-.08-3.36.9-3.33,3.45.16,20.28,0,40.57.05,60.85a1.61,1.61,0,0,1-1-1.1Q179.65,129,168.85,99.17c-.76-2.11-1.43-3.62-4.28-3.59-14,.17-27.94.11-41.9,0-2.15,0-3.11.49-3.11,2.9q.1,42.08,0,84.16c0,2.12.73,2.83,2.82,2.8,30.56-.25,19,5.24,21.16-37.55ZM252.83,239.32h7.84c8.88,0,8.78,0,8.65-8.92,0-2.54-.94-3.15-3.29-3.1-6.78-.33-14,1.13-20.55-.83a16.91,16.91,0,0,1,1.09-2.94c6.4-5.2,13.44-9.83,19.84-15.09a7.6,7.6,0,0,0,2.72-4.93c.28-8.08.2-16.19.08-24.28.65-9.94-23.45-4.54-30.34-5.68-7.74.33-5.32,10.33-5.41,15.59.07.82,1.67,2.27,2.38,2.16,3.15-.48,6.82,1.91,9.43-1.57a1.05,1.05,0,0,0,0-.73c-.56-3.21,1.16-3.82,3.87-3.59,3,.72,8.54-1.83,8.16,3.06.31,11.84.36,11.84-9.21,18.78-10,6.6-17.21,11.46-14.89,24.76C233.62,242.87,245.67,238.47,252.83,239.32Z"/>
            <path id="internal_moon" class="cls-6"
                  d="M94.35,87.44c-5.45,8.75-11.5,17.19-16.2,26.32-20,40.56-15.19,91.18,11.78,127.35,19.89,27.26,46.66,44.07,80,49.88,34,5.92,65.23-1.38,93.68-20.8,2.66-1.81,5.25-3.74,7.87-5.62-6.81,8.6-15.46,15.1-24.56,21a121.47,121.47,0,0,1-52.24,18.73,123.78,123.78,0,0,1-66.62-10.18c-26.49-12-46.47-30.91-60.06-56.48A122.42,122.42,0,0,1,54.33,190.3C51,152.22,65.27,112.59,94.35,87.44Z"/>
            <g id="internal_text">
                <path class="cls-7"
                      d="M143.55,121.15v26.78c-2.15,42.8,9.4,37.3-21.16,37.55-2.09,0-2.82-.68-2.82-2.8q.08-42.08,0-84.16c0-2.41,1-2.91,3.11-2.9,14,.07,27.93.13,41.9,0,2.85,0,3.52,1.48,4.28,3.59Q179.61,129,190.46,158.8a1.61,1.61,0,0,0,1,1.1c-.05-20.28.11-40.57-.05-60.85,0-2.55.64-3.53,3.33-3.45,5.86.18,11.72.12,17.58,0,2.14,0,3.13.46,3.13,2.88q-.1,42.07,0,84.16c0,2.1-.69,2.83-2.81,2.82-12.22-.07-24.44,0-36.66-.14a4.89,4.89,0,0,1-3.57-2.37c-7.95-17.16-15.73-34.41-23.55-51.63q-2.31-5.1-4.6-10.19Z"/>
                <path class="cls-7"
                      d="M252.83,239.31c-7.16-.84-19.21,3.56-19.6-7.3-2.31-13.32,4.88-18.16,14.89-24.76,9.57-6.94,9.52-6.94,9.21-18.78.38-4.89-5.21-2.34-8.16-3.06-2.71-.23-4.43.38-3.87,3.59a1.05,1.05,0,0,1,0,.73c-2.61,3.48-6.28,1.09-9.43,1.57-.71.11-2.31-1.34-2.38-2.16.09-5.25-2.33-15.27,5.41-15.59,6.9,1.15,31-4.28,30.34,5.68.12,8.09.2,16.2-.08,24.28a7.6,7.6,0,0,1-2.72,4.93c-6.4,5.26-13.44,9.89-19.84,15.09a16.91,16.91,0,0,0-1.09,2.94c6.53,2,13.77.5,20.55.83,2.35-.05,3.26.56,3.29,3.1.13,8.92.23,8.92-8.65,8.92Z"/>
            </g>
            <g id="internal_molecule">
                <path class="cls-8"
                      d="M182.51,257.29c7.2,3.95,10,8.55,8.71,14.35a12.34,12.34,0,0,1-9.93,9.47c-11.39,1.88-18.46-12.85-10-20.84C174.57,257.55,178.43,257,182.51,257.29Z"/>
                <path class="cls-8"
                      d="M156.22,216.81c9.13-17.14,32.18-1.11,19.55,13.5a14.78,14.78,0,0,1-11.21,2.95l-6.76-4.61A13.54,13.54,0,0,1,156.22,216.81Z"/>
                <path class="cls-8"
                      d="M124.93,232c-5.61,8.18-13.69,9.75-19.7,3.82C93.25,223,113.41,207,124,220.64Q124.48,226.31,124.93,232Z"/>
                <path class="cls-9"
                      d="M124.93,232q-.47-5.67-.92-11.35c4.84-.71,9.67-1.52,14.53-2.09,5.88-.69,11.79-1.17,17.68-1.74a13.54,13.54,0,0,0,1.58,11.84Z"/>
                <path class="cls-9"
                      d="M164.56,233.26a14.78,14.78,0,0,0,11.21-2.95q3.36,13.49,6.74,27c-4.08-.3-7.94.26-11.22,3Q167.93,246.77,164.56,233.26Z"/>
            </g>
        </g>
    </g>
</svg>